<svg id="Layer_5" height="512" viewBox="0 0 512 512" width="512" xmlns="http://www.w3.org/2000/svg" data-name="Layer 5"><g><path d="m167.47 318.339c-2.897-4.274-14.927-25.497-28.439-40.009l-29.393-49.685c6.81-6.923 8.19-18.424 3.077-26.748 0 0-27.783-46.961-27.783-46.961-6.748-11.444-21.65-14.229-32.429-6.688-5.154-3.61-9.736-4.268-13.662-1.947-16.848 10.604-.306 42.648 10.538 61.246 7.42 12.542 18.454 28.786 29.553 36.328l22.591 38.185c-1.959 18.352 11.588 44.816 21.848 62.352 13.635 22.545 39.547 61.292 62.771 48.701 19.77-12.046-14.692-67.003-18.671-74.775z" fill="#8896db"/><path d="m54.435 147.034c-.656.371-1.302.773-1.932 1.214-4.534-3.176-8.624-4.064-12.215-2.653 6.159 12.281 18.985 37.856 18.985 37.856 1.053 2.099 3.169 3.312 5.368 3.312 4.326.09 7.418-4.832 5.358-8.691l-15.565-31.037z" fill="#6b6bbf"/><path d="m184.01 308.54c-11.066-18.883-37.268-53.767-55.329-43.985-17.274 11.186.685 50.833 11.909 69.671 11.261 18.56 30.399 44.75 48.687 45.749 25.265-2.39 11.439-43.129-5.266-71.435z" fill="#e3eae8"/></g><g fill="#fcdc45"><path d="m464.421 190.559c7.916-.263 7.964-11.719 0-12-23.996 0-39.5-15.505-39.5-39.5 0-3.313-2.687-6-6-6s-6 2.687-6 6c0 23.996-15.505 39.5-39.501 39.5-3.313 0-6 2.687-6 6s2.687 6 6 6c23.996 0 39.501 15.505 39.501 39.501 0 3.313 2.687 6 6 6s6-2.687 6-6c0-23.996 15.505-39.501 39.5-39.501z"/><path d="m502.413 338.6c-16.924 0-27.86-10.936-27.86-27.859-.266-7.923-11.721-7.958-12 0 0 16.924-10.936 27.859-27.859 27.859-3.313 0-6 2.687-6 6s2.687 6 6 6c16.924 0 27.859 10.936 27.859 27.859 0 3.313 2.687 6 6 6s6-2.687 6-6c0-16.924 10.936-27.859 27.86-27.859 7.923-.266 7.958-11.721 0-12z"/><path d="m78.094 338.6c-16.924 0-27.86-10.936-27.86-27.859-.266-7.923-11.721-7.958-12 0 0 16.924-10.936 27.859-27.86 27.859-3.313 0-6 2.687-6 6s2.687 6 6 6c16.924 0 27.86 10.936 27.86 27.859 0 3.313 2.687 6 6 6s6-2.687 6-6c0-16.924 10.936-27.859 27.86-27.859 7.923-.266 7.958-11.721 0-12z"/></g><path d="m408.767 407.559c-2.589-4.683-5.583-9.699-8.896-14.911-14.234-22.386-14.189-26.428-14-43.443.095-8.53.226-20.212-1.285-38.28-2.642-31.609-10.301-44.065-17.059-55.056-5.125-8.335-9.551-15.533-10.984-31.196-3.424-37.427-22.886-213.063-23.082-214.833-.334-3.018-2.871-5.311-5.908-5.338l-72.999-.679c-1.892-.033-3.644.839-4.792 2.316-1.149 1.478-1.542 3.406-1.065 5.215.454 1.72 45.523 172.469 54.391 208.874 4.388 18.013 11.271 26.203 17.929 34.123 18.415 18.502 25.367 54.971 29.177 83.532 2.658 19.337 4.134 25.296 23.062 47.135 9.396 10.842 16.494 20.408 21.097 28.432 1.07 1.864 3.055 3.015 5.205 3.015h3.959c4.419.108 7.52-5.074 5.25-8.903z" fill="#f7bfa9"/><path d="m153.112 270.641c-2.904 8.867-4.763 19.699-4.478 33.105.856 40.212 28.449 59.671 49.849 72.403 11.6-11.167-.416-43.789-14.474-67.609-6.579-11.227-18.51-28.11-30.898-37.899z" fill="#c6cbcc"/><path d="m399.87 392.648c-9.391-14.769-12.565-21.554-13.585-29.348-10.028-12.081-10.474-15.297-12.303-28.609-3.906-29.872-11.769-72.263-34.878-96.123-5.817-6.924-9.688-11.669-12.697-24.021-8.875-36.431-54.051-207.602-54.504-209.321-.112-.424-.245-.837-.386-1.247l-16.962-.158c-1.892-.033-3.644.839-4.792 2.316-1.149 1.478-1.542 3.406-1.065 5.215.454 1.72 45.523 172.469 54.391 208.874 4.388 18.013 11.271 26.203 17.929 34.123 18.415 18.502 25.367 54.971 29.177 83.532 2.658 19.337 4.134 25.296 23.062 47.135 9.396 10.842 16.494 20.408 21.097 28.432 1.07 1.864 3.055 3.015 5.205 3.015h3.959c4.419.108 7.52-5.074 5.25-8.903-2.589-4.683-5.583-9.699-8.896-14.911z" fill="#dd9b90"/><path d="m414.775 404.462h-11.808c-4.933-8.006-11.863-17.174-20.643-27.306-17.374-20.047-17.924-24.053-20.241-40.91-4.221-32.283-12.222-69.606-31.88-89.619-6.295-7.49-11.732-13.958-15.455-29.241-8.895-36.516-53.993-207.375-54.448-209.097-.695-2.633-3.078-4.468-5.801-4.468h-156.836c-4.396-.092-7.533 5.059-5.252 8.9.964 1.746 96.495 175.004 105.682 212.217 3.971 16.085-.818 21.669-8.066 30.122-8.009 9.338-17.977 20.961-17.397 48.176.65 30.54 23.566 43.855 43.784 55.604 15.773 9.165 29.395 17.081 32.199 31.297 6.344 32.077 11.872 66.59 49.563 66.163h116.6c14.292 0 25.919-11.627 25.919-25.919s-11.627-25.919-25.919-25.919z" fill="#ffd5ae"/><path d="m263.065 292.746c-14.898 0-27.018-12.12-27.018-27.019 0-3.313-2.687-6-6-6s-6 2.687-6 6c0 21.515 17.503 39.019 39.018 39.019 7.937-.275 7.947-11.722 0-12z" fill="#dd9b90"/><path d="m248.612 390.137c6.344 32.077 11.872 66.59 49.563 66.163h116.6c14.292 0 25.919-11.627 25.919-25.919s-11.627-25.919-25.919-25.919h-11.808c-4.39-7.125-10.371-15.174-17.82-24h-140.584c1.945 2.905 3.342 6.089 4.049 9.675z" fill="#f7bfa9"/><path d="m501.586 404.462h-492c-3.313 0-6 2.687-6 6-1.215 16.854 10.941 31.944 27.514 33.841l24.528 47.615c5.167 10.03 15.387 16.261 26.669 16.261h346.576c11.283 0 21.502-6.23 26.67-16.261l24.528-47.615c15.479-1.869 27.514-15.088 27.514-31.063v-2.777c0-3.313-2.687-6-6-6z" fill="#ff86ae"/><path d="m460.142 404.462-14.945 29.013-14.652 28.443c-5.168 10.03-15.387 16.261-26.67 16.261h-346.577c-3.311 0-6.525-.55-9.552-1.562l7.882 15.301c5.167 10.03 15.387 16.261 26.669 16.261h346.576c11.283 0 21.502-6.23 26.67-16.261l24.528-47.615c15.479-1.869 27.514-15.088 27.514-31.063v-2.777c0-3.313-2.687-6-6-6h-41.445z" fill="#e26187"/><g><path d="m470.421 184.559c0-3.313-2.687-6-6-6-23.996 0-39.5-15.505-39.5-39.5 0-3.313-2.687-6-6-6s-6 2.687-6 6c0 30.804 20.696 51.5 51.5 51.5 3.313 0 6-2.687 6-6z" fill="#ffee93"/><path d="m373.419 178.559c-7.934.275-7.95 11.721 0 12 23.996 0 39.501 15.505 39.501 39.501 0 3.313 2.687 6 6 6s6-2.687 6-6c0-30.804-20.697-51.501-51.501-51.501z" fill="#f9bd46"/><path d="m502.413 338.6c-16.924 0-27.86-10.936-27.86-27.859-.265-7.929-11.725-7.951-12 0 0 23.841 16.019 39.859 39.86 39.859 7.937-.275 7.947-11.722 0-12z" fill="#ffee93"/><path d="m434.694 338.6c-7.937.275-7.947 11.722 0 12 16.924 0 27.859 10.936 27.859 27.859 0 3.313 2.687 6 6 6s6-2.687 6-6c0-23.841-16.018-39.859-39.859-39.859z" fill="#f9bd46"/><path d="m78.094 338.6c-16.924 0-27.86-10.936-27.86-27.859-.265-7.929-11.725-7.951-12 0 0 23.841 16.019 39.859 39.86 39.859 7.937-.275 7.947-11.722 0-12z" fill="#ffee93"/><path d="m10.375 338.6c-7.937.275-7.947 11.722 0 12 16.924 0 27.86 10.936 27.86 27.859 0 3.313 2.687 6 6 6s6-2.687 6-6c0-23.841-16.019-39.859-39.86-39.859z" fill="#f9bd46"/></g></svg>