<?xml version="1.0" encoding="UTF-8" standalone="no"?>
<!-- Created with Inkscape (http://www.inkscape.org/) -->

<svg
   width="105.3858mm"
   height="63.773605mm"
   viewBox="0 0 105.3858 63.773606"
   version="1.1"
   id="svg5"
   xmlns="http://www.w3.org/2000/svg"
   xmlns:svg="http://www.w3.org/2000/svg">
  <defs
     id="defs2"><rect
   x="-144.98051"
   y="177.20114"
   width="423.93222"
   height="140.11098"
   id="rect2562" />

	

		
		
	</defs>
  <g
     id="layer1"
     transform="translate(-41.868205,-96.38323)">
    <path
       style="fill:#000000;stroke-width:0.264583"
       d="m 85.948267,138.76971 c 0,-0.11628 0.410827,-0.35999 0.912948,-0.54156 0.502123,-0.18156 1.216498,-0.69087 1.5875,-1.13178 0.672346,-0.79904 0.674552,-0.81847 0.674552,-5.94073 v -5.13908 H 81.03786 c -7.916032,0 -8.92144,-0.11194 -7.128433,-0.79363 0.335367,-0.12751 0.94888,-0.67633 1.363361,-1.2196 l 0.753604,-0.98777 0.07368,-12.38259 c 0.07205,-12.10989 0.06194,-12.39433 -0.459301,-12.91557 -0.293137,-0.29314 -1.010901,-0.6094 -1.59503,-0.70281 -2.540908,-0.4063 -0.608804,-0.63136 5.420236,-0.63136 3.56526,0 6.482291,0.10339 6.482291,0.22975 0,0.12636 -0.495707,0.29623 -1.101571,0.37749 -0.605867,0.0813 -1.409539,0.37766 -1.785938,0.65866 l -0.684366,0.51089 -0.06855,13.5314 -0.06855,13.53139 2.449798,-0.003 c 1.347388,-0.002 2.896283,-0.0767 3.441986,-0.16691 l 0.992187,-0.164 v -6.72428 -6.72428 l -0.631896,-0.6319 c -0.347544,-0.34754 -1.061919,-0.71257 -1.5875,-0.81117 -0.525582,-0.0986 -0.955604,-0.29584 -0.955604,-0.43832 0,-0.16609 3.203914,-0.21878 8.929688,-0.14684 8.092628,0.10167 9.123158,0.16522 10.993568,0.67795 5.46936,1.49929 8.83644,4.72649 9.97717,9.56267 0.47408,2.00991 0.41015,6.13787 -0.12696,8.19693 -1.40958,5.40375 -5.49173,9.14401 -11.5703,10.60126 -1.94068,0.46525 -3.12599,0.52664 -10.19952,0.52828 -4.402005,0.001 -8.003646,-0.0933 -8.003646,-0.20958 z m 19.197473,-1.64596 c 2.74125,-1.31944 4.10794,-3.89627 4.59584,-8.66519 0.49529,-4.84125 -0.35643,-9.79316 -2.236,-13.00017 -1.13087,-1.92954 -2.39025,-3.04775 -4.61144,-4.09454 -1.54744,-0.72927 -2.04886,-0.82695 -4.698093,-0.91527 l -2.965762,-0.0989 -0.07695,5.32015 c -0.04232,2.92609 -0.01098,5.32003 0.06962,5.31988 0.08061,-1.5e-4 0.780172,-0.83371 1.554592,-1.85235 1.36806,-1.79951 2.04875,-2.33385 1.76953,-1.38907 -0.0753,0.25466 -0.63884,2.42755 -1.2524,4.82865 -0.61356,2.40109 -1.15244,4.41236 -1.19751,4.46947 -0.0451,0.0571 -0.26342,-0.0468 -0.485219,-0.23083 -0.359018,-0.29796 -0.40327,0.2463 -0.40327,4.96 v 5.29468 l 1.653639,0.42426 c 3.451693,0.88558 5.900943,0.77593 8.283413,-0.37081 z"
       id="path1044" />
    <g
       aria-label="Nail Arte | Make-up"
       transform="matrix(0.32514501,0,0,0.32514501,88.812794,84.569792)"
       id="text2560"
       style="font-size:40px;line-height:1.25;white-space:pre;shape-inside:url(#rect2562)">
      <path
         d="m -93.020469,183.2318 q -0.08,0.28 -0.28,0.48 -0.2,0.16 -0.48,0.16 0,0 -0.12,0 -0.08,-0.04 -0.44,-0.04 -1.96,0 -4.2,1.44 -2.200001,1.44 -3.400001,5.68 -0.68,2.32 -1.84,9.6 -1.16,7.24 -1.64,11.76 -0.04,0.24 -0.24,0.44 -0.2,0.24 -0.44,0.24 -0.56,0 -0.76,-0.56 -0.68,-2.48 -3.2,-9.56 -2.52,-7.12 -5.04,-13.92 -0.6,6.2 -2.92,12.08 -1.96,5.08 -5.24,7.76 -3.24,2.68 -6.2,3.48 -2.92,0.76 -5.08,0.76 -2.84,0 -5.08,-1 -2.24,-1 -3.52,-2.8 -1.24,-1.8 -1.24,-4.12 0,-2.04 1.2,-3.76 1.2,-1.76 3.16,-2.76 2,-1 4.24,-1 2.48,0 4.16,0.84 1.72,0.84 2.52,1.72 0.84,0.88 1.08,1.36 0.08,0.12 0.08,0.36 0,0.28 -0.2,0.52 -0.2,0.2 -0.52,0.2 -0.44,0 -0.64,-0.36 -0.2,-0.36 -0.88,-1.08 -0.68,-0.76 -2.08,-1.44 -1.4,-0.68 -3.4,-0.68 -1.84,0 -3.52,0.84 -1.68,0.8 -2.72,2.2 -1.04,1.4 -1.04,3.08 0,1.88 1.12,3.36 1.12,1.44 3.04,2.24 1.92,0.8 4.2,0.8 3.8,0 8.2,-2.16 4.4,-2.16 7,-8.92 1.8,-4.6 2.36,-8.48 0.6,-3.88 0.6,-6.32 v -0.4 q 0,-0.32 0.2,-0.52 0.24,-0.24 0.56,-0.24 0.48,0 0.68,0.52 1.08,2.92 3.96,10.88 2.92,7.96 4.56,12.84 0.6,-4.76 1.56,-10.4 0.96,-5.68 1.52,-7.8 0.92,-3.64 3.28,-5.92 2.360001,-2.28 5.800001,-2.28 0.68,0 0.96,0.2 0.32,0.16 0.32,0.56 z"
         style="font-family:Sacramento;-inkscape-font-specification:Sacramento"
         id="path7741" />
      <path
         d="m -84.020535,207.1518 q -1,2 -2.4,3.88 -1.4,1.88 -3.44,1.88 -1.08,0 -1.88,-0.68 -0.8,-0.72 -1.16,-1.84 -0.64,1.12 -1.56,1.76 -0.92,0.64 -1.84,0.64 -1.44,0 -2.32,-0.96 -0.84,-1 -0.84,-2.56 0,-1.92 0.8,-3.32 0.84,-1.44 2.08,-2.16 1.28,-0.72 2.56,-0.72 1.04,0 1.76,0.4 0.72,0.4 1,0.68 0.24,0.24 0.24,0.52 0,0.28 -0.24,0.52 -0.2,0.24 -0.48,0.24 -0.32,0 -0.56,-0.24 -0.2,-0.2 -0.68,-0.4 -0.44,-0.24 -1.12,-0.24 -0.88,0 -1.8,0.52 -0.88,0.52 -1.48,1.56 -0.6,1.04 -0.6,2.56 0,0.84 0.4,1.48 0.4,0.64 1.28,0.64 0.52,0 1.12,-0.44 0.64,-0.44 1.16,-1.32 0.52,-0.92 0.68,-2.16 0.04,-0.28 0.24,-0.44 0.2,-0.2 0.52,-0.2 0.28,0 0.48,0.2 0.2,0.2 0.2,0.48 0.12,1.64 0.48,2.84 0.4,1.2 1.6,1.2 1.24,0 2.44,-1.6 1.24,-1.6 2,-3.32 0.2,-0.44 0.68,-0.44 0.32,0 0.52,0.24 0.2,0.24 0.2,0.52 0,0.16 -0.04,0.28 z"
         style="font-family:Sacramento;-inkscape-font-specification:Sacramento"
         id="path7743" />
      <path
         d="m -82.18054,197.2718 q 0,0.72 -0.52,1.24 -0.52,0.52 -1.24,0.52 -0.76,0 -1.28,-0.52 -0.52,-0.52 -0.52,-1.24 0,-0.76 0.52,-1.28 0.52,-0.52 1.28,-0.52 0.72,0 1.24,0.52 0.52,0.52 0.52,1.28 z m -1.08,0 q 0,-0.28 -0.2,-0.48 -0.2,-0.2 -0.48,-0.2 -0.28,0 -0.48,0.2 -0.2,0.16 -0.2,0.48 0,0.28 0.2,0.48 0.2,0.16 0.48,0.16 0.28,0 0.48,-0.16 0.2,-0.2 0.2,-0.48 z m -2.08,11.44 q 0,-2.84 0.36,-5.6 0.04,-0.32 0.24,-0.48 0.2,-0.2 0.52,-0.2 0.28,0 0.48,0.2 0.2,0.2 0.2,0.52 0,0.28 -0.16,2.16 -0.16,1.88 -0.16,3.32 0,1.84 0.6,2.56 0.64,0.68 1.52,0.68 1.04,0 2.28,-1.44 1.28,-1.44 2.52,-3.92 0.2,-0.4 0.68,-0.4 0.28,0 0.48,0.24 0.24,0.24 0.24,0.48 0,0.12 -0.08,0.36 -1.12,2.24 -2.76,4.24 -1.6,1.96 -3.4,1.96 -1.68,0 -2.64,-1.32 -0.92,-1.36 -0.92,-3.36 z"
         style="font-family:Sacramento;-inkscape-font-specification:Sacramento"
         id="path7745" />
      <path
         d="m -65.860577,207.1918 q -1.2,2.4 -2.64,4.2 -1.4,1.8 -3.36,1.8 -3.04,0 -4.16,-4.4 -1.08,-4.4 -1.08,-9.56 0,-5.8 1.12,-10.44 1.12,-4.68 3.36,-4.68 2.8,0 2.8,5.76 0,3.68 -1.44,7.92 -1.4,4.24 -3.8,8.6 0.48,2.52 1.32,3.92 0.84,1.4 1.96,1.4 1.36,0 2.56,-1.64 1.2,-1.68 2.04,-3.56 0.2,-0.4 0.68,-0.4 0.32,0 0.52,0.24 0.2,0.2 0.2,0.52 z m -9.76,-7.88 q 0,2.32 0.2,4.64 1.8,-3.52 2.96,-7.24 1.16,-3.76 1.16,-6.84 0,-4.28 -1.36,-4.28 -0.8,0 -1.48,2.04 -0.68,2 -1.08,5.2 -0.4,3.2 -0.4,6.48 z"
         style="font-family:Sacramento;-inkscape-font-specification:Sacramento"
         id="path7747" />
      <path
         d="m -20.900647,212.5118 q 0.08,0.08 0.08,0.32 0,0.32 -0.24,0.52 -0.2,0.2 -0.52,0.2 -0.48,0 -0.64,-0.4 -1.32,-2.56 -1.68,-10.24 l -7.44,0.96 q -2.12,0.32 -3.36,0.4 -4.12,4.52 -8.8,6.92 -4.64,2.36 -9.24,2.36 -2.44,0 -4.24,-0.6 -1.76,-0.56 -2.56,-1.12 -0.84,-0.6 -1.32,-0.96 -0.2,-0.28 -0.2,-0.52 0,-0.32 0.24,-0.52 0.2,-0.24 0.48,-0.24 0.32,0 0.56,0.24 0.64,0.64 2.32,1.44 1.68,0.8 4.68,0.8 4.52,0 8.48,-2.12 4,-2.16 7.36,-5.48 -2.76,0.24 -5.48,0.24 -5.84,0 -9.44,-1.4 -3.6,-1.4 -3.6,-4.6 0,-0.96 0.52,-1.96 0.52,-1.04 1.2,-1.72 0.68,-0.72 1.16,-0.72 0.28,0 0.48,0.2 0.24,0.2 0.24,0.52 0,0.44 -0.32,0.6 0,0 -0.48,0.36 -0.44,0.36 -0.92,1.16 -0.44,0.76 -0.44,1.56 0,2.2 3,3.4 3,1.16 8.56,1.16 2.72,0 7.04,-0.4 1.24,-1.36 2.92,-3.6 2.2,-3.12 4.84,-7.28 2.68,-4.16 4.48,-7.12 0.32,-1.4 1.12,-1.4 0.32,0 0.56,0.24 0.28,0.24 0.28,0.6 0,0.48 -0.56,1.12 -0.2,1.16 -0.48,5.04 -0.24,3.84 -0.24,7.6 0,2.12 0.04,3.16 5.16,-0.64 5.68,-0.64 0.28,0 0.52,0.2 0.24,0.2 0.24,0.52 0,0.28 -0.2,0.48 -0.16,0.2 -0.48,0.24 l -5.72,0.68 q 0.28,7.32 1.52,9.8 z m -10.64,-10.08 q 4.2,-0.6 7.6,-1 -0.04,-1.12 -0.04,-3.4 0,-5.96 0.36,-9.6 -4.96,7.84 -7.72,11.68 -0.56,0.8 -1.92,2.52 0.48,-0.04 1.72,-0.2 z"
         style="font-family:Sacramento;-inkscape-font-specification:Sacramento"
         id="path7749" />
      <path
         d="m -12.460696,204.5518 q -0.16,0.88 -0.4,1.64 -0.2,0.72 -0.32,0.96 -0.2,0.44 -0.68,0.44 -0.28,0 -0.52,-0.2 -0.2,-0.24 -0.2,-0.52 0,-0.12 0.16,-0.44 0.16,-0.32 0.48,-1.84 -0.96,0 -1.48,-0.2 -0.56,-0.2 -0.56,-1 0,-0.48 0.36,-1.28 0.32,-0.84 0.8,-1.44 0.52,-0.64 1,-0.64 0.8,0 1.12,0.96 0.32,0.92 0.36,2.08 h 1.24 q 1.1599996,0 1.7199996,0.52 0.6,0.48 0.6,1.56 0,0.76 -0.2,1.88 -0.04,0.28 -0.12,0.96 -0.08,0.64 -0.08,1.12 0,1.28 0.6,1.84 0.6,0.56 1.32,0.56 1.44,0 2.6,-1.44 1.2,-1.48 2.28,-3.56 0.08,-0.16 0.24,-0.28 0.2,-0.12 0.4,-0.12 0.32,0 0.52,0.24 0.23999999,0.2 0.23999999,0.48 0,0.12 -0.08,0.36 -1.36,2.48 -2.8,4.16 -1.4,1.64 -3.4,1.64 -1.44,0 -2.44,-1.04 -0.9599996,-1.08 -0.9599996,-2.88 0,-0.48 0.08,-1.08 0.08,-0.64 0.12,-0.92 0.2,-1.08 0.2,-1.8 0,-0.4 -0.2,-0.56 -0.16,-0.16 -0.72,-0.16 z m -1.32,-1.44 q 0,-0.36 -0.08,-0.84 -0.04,-0.48 -0.16,-0.48 -0.12,0 -0.32,0.48 -0.2,0.48 -0.28,0.84 z"
         style="font-family:Sacramento;-inkscape-font-specification:Sacramento"
         id="path7751" />
      <path
         d="m 13.419283,193.0318 q 0,0.28 -0.2,0.48 -0.2,0.2 -0.52,0.2 H 2.7792834 v 0.24 q 0,2.24 -0.64,5.04 -0.6,2.76 -1.47999995,5.08 -0.84,2.28 -1.48,3.08 0.56,1.92 1.44,3.12 0.87999995,1.16 1.99999995,1.16 1.16,0 2.4,-1.68 1.24,-1.68 1.84,-3.16 0.2,-0.48 0.68,-0.48 0.32,0 0.52,0.24 0.24,0.2 0.24,0.48 0,0.12 -0.08,0.28 -0.68,1.64 -2.12,3.72 -1.44,2.08 -3.4,2.08 -1.75999995,0 -3.07999995,-1.52 -1.28000005,-1.52 -2.00000005,-4.2 -0.68,-2.68 -0.68,-6.12 0,-4.56 0.6,-7.36 h -7.04 q -0.32,0 -0.5200004,-0.2 -0.2,-0.2 -0.2,-0.48 0,-0.28 0.2,-0.48 0.2000004,-0.2 0.5200004,-0.2 h 7.36 q 0.96,-3.2 2.76000005,-3.2 1.71999995,0 2.07999995,3.2 h 9.9999996 q 0.32,0 0.52,0.2 0.2,0.2 0.2,0.48 z m -12.87999955,-2.44 q -0.2,0 -0.56,0.44 -0.32,0.44 -0.64,1.32 H 1.2192834 q -0.2,-1.76 -0.67999995,-1.76 z m -1.84000005,14.6 q 1.16000005,-2.52 1.88000005,-5.72 0.71999995,-3.2 0.71999995,-5.76 h -2.27999995 q -0.60000005,2.68 -0.60000005,7.36 0,2.72 0.28,4.12 z"
         style="font-family:Sacramento;-inkscape-font-specification:Sacramento"
         id="path7753" />
      <path
         d="m 9.2592755,210.4318 q 0.9600005,1.28 2.6400005,1.28 1.72,0 2.96,-1.44 1.28,-1.44 2.28,-3.72 0.2,-0.44 0.68,-0.44 0.28,0 0.48,0.24 0.24,0.24 0.24,0.48 0,0.16 -0.08,0.32 -2.68,6 -6.52,6.04 -2.4400005,0 -3.7200005,-1.68 -1.24,-1.68 -1.24,-3.92 0,-1.96 0.92,-3.28 0.96,-1.32 2.4800005,-1.32 1,0 1.72,0.76 0.76,0.72 0.76,1.88 0,1.52 -1,2.76 -0.96,1.24 -2.6000005,2.04 z m -0.6,-1.24 q 1.24,-0.52 1.9600005,-1.48 0.76,-1 0.76,-2.08 0,-0.56 -0.32,-0.88 -0.28,-0.32 -0.68,-0.32 -0.9600005,0 -1.4400005,1 -0.48,0.96 -0.48,2.24 0,0.72 0.2,1.52 z"
         style="font-family:Sacramento;-inkscape-font-specification:Sacramento"
         id="path7755" />
      <path
         d="m 30.859214,215.2318 q 0,0.32 -0.2,0.52 -0.2,0.2 -0.52,0.2 -0.32,0 -0.56,-0.2 -0.2,-0.2 -0.2,-0.52 0,-0.04 0,-1.04 0.04,-0.96 0.04,-4.6 0,-4.28 -0.08,-9.48 -0.08,-4.52 -0.28,-10.24 -0.2,-5.72 -0.2,-5.88 0,-0.32 0.2,-0.52 0.2,-0.24 0.52,-0.24 0.32,0 0.52,0.2 0.24,0.16 0.24,0.48 l 0.04,0.88 q 0.04,1.24 0.2,6.64 0.16,5.36 0.24,8.64 0.08,4.8 0.08,8.68 0,2.48 -0.04,4.2 0,1.76 0,2.28 z"
         style="font-family:Sacramento;-inkscape-font-specification:Sacramento"
         id="path7757" />
      <path
         d="m 90.259166,187.4318 q -1.6,2.32 -4.08,6.8 -1.76,3.16 -3.52,7.12 -1.76,3.92 -2.92,6.84 -1.12,2.92 -1.44,3.8 -0.2,0.48 -0.72,0.48 -0.24,0 -0.44,-0.16 -0.2,-0.16 -0.24,-0.44 l -1.28,-5.64 -2.72,-11.8 q -2.56,7.28 -5.28,11.4 -2.68,4.12 -5.84,5.84 -3.12,1.68 -7.24,1.68 -2.24,0 -4.6,-0.96 -2.36,-1 -4,-2.96 -1.6,-1.96 -1.6,-4.76 0,-2.08 1.12,-3.68 1.12,-1.64 3,-2.56 1.92,-0.92 4.12,-0.92 2.16,0 3.64,0.64 1.48,0.6 1.48,0.64 0.04,0 1.6,1.56 0.12,0.16 0.12,0.4 0,0.28 -0.24,0.52 -0.2,0.24 -0.52,0.24 -0.4,0 -0.64,-0.36 -0.76,-0.76 -1.04,-0.96 -0.24,-0.24 -1.48,-0.72 -1.2,-0.48 -3,-0.48 -1.8,0 -3.36,0.76 -1.52,0.72 -2.44,2 -0.88,1.28 -0.88,2.92 0,2.32 1.4,3.96 1.4,1.6 3.44,2.4 2.04,0.8 3.92,0.8 3.32,0 5.96,-1.2 2.64,-1.2 5.2,-4.64 2.6,-3.44 5.04,-9.88 0.72,-1.84 1.52,-4.56 -0.6,-3.44 -0.6,-4.92 0,-1.56 0.4,-2.04 0.44,-0.52 1.04,-0.52 1.36,0 1.36,2.56 0,1.92 -0.72,4.88 l 4,17.68 q 4,-10 7.12,-15.68 2.6,-4.64 4.52,-7.28 1.92,-2.64 2.6,-3.32 0.2,-0.24 0.52,-0.24 0.28,0 0.48,0.24 0.24,0.2 0.24,0.52 0,0.16 -0.04,0.28 -0.2,0.4 -0.96,2.52 -0.76,2.12 -1.52,5.12 -0.76,3 -1,5.88 -0.16,2 -0.16,3.2 0,4.6 1.4,7.8 1.44,3.16 4.84,3.28 0.28,0 0.48,0.24 0.2,0.24 0.2,0.52 0,0.28 -0.24,0.48 -0.2,0.24 -0.48,0.24 -0.2,0 -0.6,-0.08 -3.88,-0.56 -5.48,-4 -1.56,-3.48 -1.56,-8.56 0,-3.24 0.6,-6.6 0.6,-3.36 1.52,-6.32 z"
         style="font-family:Sacramento;-inkscape-font-specification:Sacramento"
         id="path7759" />
      <path
         d="m 112.73911,207.1518 q -1,2 -2.4,3.88 -1.4,1.88 -3.44,1.88 -1.08,0 -1.88,-0.68 -0.8,-0.72 -1.16,-1.84 -0.64,1.12 -1.56,1.76 -0.92,0.64 -1.84,0.64 -1.440001,0 -2.320001,-0.96 -0.84,-1 -0.84,-2.56 0,-1.92 0.8,-3.32 0.84,-1.44 2.080001,-2.16 1.28,-0.72 2.56,-0.72 1.04,0 1.76,0.4 0.72,0.4 1,0.68 0.24,0.24 0.24,0.52 0,0.28 -0.24,0.52 -0.2,0.24 -0.48,0.24 -0.32,0 -0.56,-0.24 -0.2,-0.2 -0.68,-0.4 -0.44,-0.24 -1.12,-0.24 -0.88,0 -1.8,0.52 -0.880001,0.52 -1.480001,1.56 -0.6,1.04 -0.6,2.56 0,0.84 0.4,1.48 0.4,0.64 1.280001,0.64 0.52,0 1.12,-0.44 0.64,-0.44 1.16,-1.32 0.52,-0.92 0.68,-2.16 0.04,-0.28 0.24,-0.44 0.2,-0.2 0.52,-0.2 0.28,0 0.48,0.2 0.2,0.2 0.2,0.48 0.12,1.64 0.48,2.84 0.4,1.2 1.6,1.2 1.24,0 2.44,-1.6 1.24,-1.6 2,-3.32 0.2,-0.44 0.68,-0.44 0.32,0 0.52,0.24 0.2,0.24 0.2,0.52 0,0.16 -0.04,0.28 z"
         style="font-family:Sacramento;-inkscape-font-specification:Sacramento"
         id="path7761" />
      <path
         d="m 116.3391,210.1918 q 0.28,0.76 1.04,1.2 0.8,0.4 1.76,0.4 1.32,0 3,-0.96 1.68,-0.96 3.24,-4.28 0.2,-0.44 0.64,-0.44 0.32,0 0.52,0.24 0.24,0.2 0.24,0.48 0,0.16 -0.08,0.32 -1.36,2.88 -3.36,4.52 -2,1.6 -4.2,1.6 -1.72,0 -2.96,-0.96 -1.24,-1 -1.24,-2.28 0,-0.28 0.16,-0.6 0.2,-0.32 0.68,-0.48 1.68,-0.48 2.68,-1.36 1,-0.88 1,-2.04 0,-0.52 -0.36,-0.84 -0.32,-0.36 -0.84,-0.36 -1.44,0 -2.8,2.44 -1.36,2.44 -2,5.04 -0.2,0.68 -0.44,1.08 -0.2,0.4 -0.72,0.4 -0.36,0 -0.6,-0.28 -0.24,-0.24 -0.24,-0.8 l 0.36,-26.28 q 0,-0.28 0.24,-0.48 0.24,-0.24 0.52,-0.24 0.32,0 0.52,0.2 0.2,0.2 0.2,0.52 l -0.32,23.24 q 0.8,-2.56 2.12,-4.44 1.32,-1.88 3.16,-1.88 1.12,0 1.88,0.8 0.8,0.76 0.8,1.88 0,1.64 -1.32,2.84 -1.32,1.2 -3.28,1.8 z"
         style="font-family:Sacramento;-inkscape-font-specification:Sacramento"
         id="path7763" />
      <path
         d="m 127.69908,210.4318 q 0.96,1.28 2.64,1.28 1.72,0 2.96,-1.44 1.28,-1.44 2.28,-3.72 0.2,-0.44 0.68,-0.44 0.28,0 0.48,0.24 0.24,0.24 0.24,0.48 0,0.16 -0.08,0.32 -2.68,6 -6.52,6.04 -2.44,0 -3.72,-1.68 -1.24,-1.68 -1.24,-3.92 0,-1.96 0.92,-3.28 0.96,-1.32 2.48,-1.32 1,0 1.72,0.76 0.76,0.72 0.76,1.88 0,1.52 -1,2.76 -0.96,1.24 -2.6,2.04 z m -0.6,-1.24 q 1.24,-0.52 1.96,-1.48 0.76,-1 0.76,-2.08 0,-0.56 -0.32,-0.88 -0.28,-0.32 -0.68,-0.32 -0.96,0 -1.44,1 -0.48,0.96 -0.48,2.24 0,0.72 0.2,1.52 z"
         style="font-family:Sacramento;-inkscape-font-specification:Sacramento"
         id="path7765" />
      <path
         d="m 147.69903,205.7518 q 0,0.32 -0.2,0.56 -0.2,0.2 -0.48,0.24 l -6.72,0.32 h -0.08 q -0.28,0 -0.52,-0.2 -0.2,-0.2 -0.2,-0.48 0,-0.32 0.2,-0.52 0.2,-0.24 0.52,-0.24 l 6.72,-0.36 q 0.32,0 0.52,0.2 0.24,0.2 0.24,0.48 z"
         style="font-family:Sacramento;-inkscape-font-specification:Sacramento"
         id="path7767" />
      <path
         d="m 156.69898,210.3918 q -0.68,1.12 -1.6,1.76 -0.92,0.64 -1.84,0.64 -1.48,0 -2.36,-1 -0.84,-1.04 -0.84,-2.8 0,-1.64 0.36,-2.88 0.4,-1.28 0.84,-2.08 0.48,-0.8 0.48,-0.68 0.24,-0.24 0.56,-0.24 0.32,0 0.52,0.2 0.2,0.2 0.2,0.52 0,0.16 -0.16,0.48 -0.04,0.08 -0.72,1.2 -0.64,1.08 -0.64,3.48 0,1.12 0.44,1.72 0.48,0.6 1.32,0.6 0.52,0 1.16,-0.44 0.64,-0.44 1.12,-1.28 0.52,-0.88 0.64,-2.08 l 0.28,-3.36 q 0.04,-0.28 0.24,-0.48 0.24,-0.2 0.52,-0.2 0.36,0 0.52,0.24 0.2,0.24 0.2,0.56 l -0.24,3.24 q -0.08,1.24 0.36,2.6 0.48,1.36 1.72,1.36 1.36,0 2.52,-1.6 1.2,-1.6 1.92,-3.32 0.2,-0.44 0.64,-0.44 0.32,0 0.52,0.24 0.24,0.2 0.24,0.48 0,0.08 -0.08,0.32 -0.28,0.76 -1.04,2.08 -0.76,1.32 -2.04,2.52 -1.24,1.16 -2.72,1.16 -1.12,0 -1.92,-0.64 -0.76,-0.68 -1.12,-1.88 z"
         style="font-family:Sacramento;-inkscape-font-specification:Sacramento"
         id="path7769" />
      <path
         d="m 174.21892,207.1518 q 0,1.72 -0.64,3.04 -0.6,1.28 -1.6,1.96 h 0.08 q 2.08,0 3.56,-1.56 1.48,-1.6 2.72,-4.04 0.2,-0.44 0.68,-0.44 0.28,0 0.48,0.24 0.24,0.2 0.24,0.48 0,0.08 -0.08,0.32 -1.2,2.72 -3.08,4.56 -1.88,1.84 -4.48,1.84 -1.04,0 -2.04,-0.36 -0.96,-0.32 -1.68,-0.96 -0.56,-0.44 -0.76,-0.92 l -0.04,-0.08 q -0.12,-0.2 -0.12,-0.36 0,-0.32 0.16,-0.48 0,-0.08 0.08,-0.08 0.2,-0.2 0.44,-0.2 h 0.04 0.16 l 0.04,0.04 q 0.08,0 0.12,0.04 h 0.04 q 0.2,0.12 0.32,0.32 0.04,0.08 0.16,0.28 0.16,0.2 0.4,0.4 0.28,0.16 0.6,0.16 1.04,0 1.88,-1.16 0.84,-1.2 0.84,-3.04 0,-1.32 -0.48,-1.96 -0.44,-0.68 -1,-0.68 -0.76,0 -1.52,1.08 -0.72,1.04 -1.92,3.24 l -0.76,1.44 q -0.12,7.96 -0.44,12.32 -0.28,4.4 -1.24,7.12 -0.96,2.76 -3,2.76 -0.92,0 -1.68,-0.88 -0.76,-0.84 -0.76,-3.12 0,-3.32 1.6,-8.48 1.56,-5.12 4.04,-10.04 l 0.04,-2.64 q -0.28,0.28 -0.6,0.28 -0.32,0 -0.52,-0.24 -0.2,-0.24 -0.2,-0.52 0,-0.16 0.04,-0.28 0.76,-1.8 1,-3.28 0.28,-1.48 0.28,-2.08 0,-0.28 0.2,-0.48 0.24,-0.24 0.52,-0.24 0.32,0 0.52,0.2 0.2,0.2 0.2,0.52 v 6 q 0.16,-0.24 0.92,-1.52 0.8,-1.32 1.6,-1.96 0.8,-0.64 1.68,-0.64 1.32,0 2.12,1.16 0.84,1.16 0.84,2.92 z m -8.68,6.28 q -1.92,4.24 -3.04,8.44 -1.12,4.2 -1.12,6.88 0,2.24 1.12,2.24 1.68,0 2.28,-4.96 0.6,-4.92 0.76,-12.6 z"
         style="font-family:Sacramento;-inkscape-font-specification:Sacramento"
         id="path7771" />
    </g>
    <path
       style="fill:#ff0066;stroke-width:0.00594708"
       d="m 62.884339,148.26822 h -9e-5 c 4.28e-4,-0.01 8.13e-4,-0.0201 8.13e-4,-0.0302 0,-0.40662 -0.342951,-0.75908 -0.766003,-0.75908 -0.309309,0 -0.575613,0.19914 -0.696554,0.45281 h -1.57e-4 c -0.12095,-0.25368 -0.387255,-0.45281 -0.696563,-0.45281 -0.423058,0 -0.76601,0.35246 -0.76601,0.75908 0,0.0101 3.67e-4,0.0202 8.13e-4,0.0302 h -1.13e-4 c 0,0 -0.04324,0.48303 0.494311,1.01041 0.244402,0.24489 0.517748,0.47761 0.967627,0.84328 0.449886,-0.36568 0.723226,-0.5984 0.967634,-0.84328 0.537558,-0.52738 0.49431,-1.01041 0.49431,-1.01041 z"
       id="path7436" />
  </g>
</svg>
