<?xml version="1.0" encoding="UTF-8" standalone="no"?>
<!-- Created with Inkscape (http://www.inkscape.org/) -->

<svg
   width="43.213337mm"
   height="42.595978mm"
   viewBox="0 0 43.213337 42.595978"
   version="1.1"
   id="svg5"
   inkscape:version="1.1.2 (0a00cf5339, 2022-02-04)"
   sodipodi:docname="LD.svg"
   xmlns:inkscape="http://www.inkscape.org/namespaces/inkscape"
   xmlns:sodipodi="http://sodipodi.sourceforge.net/DTD/sodipodi-0.dtd"
   xmlns="http://www.w3.org/2000/svg"
   xmlns:svg="http://www.w3.org/2000/svg">
  <sodipodi:namedview
     id="namedview7"
     pagecolor="#ffffff"
     bordercolor="#999999"
     borderopacity="1"
     inkscape:pageshadow="0"
     inkscape:pageopacity="0"
     inkscape:pagecheckerboard="0"
     inkscape:document-units="mm"
     showgrid="false"
     fit-margin-top="0"
     fit-margin-left="0"
     fit-margin-right="0"
     fit-margin-bottom="0"
     inkscape:zoom="1.6717487"
     inkscape:cx="-53.536753"
     inkscape:cy="176.46192"
     inkscape:window-width="1920"
     inkscape:window-height="1043"
     inkscape:window-x="0"
     inkscape:window-y="0"
     inkscape:window-maximized="1"
     inkscape:current-layer="layer1" />
  <defs
     id="defs2" />
  <g
     inkscape:label="Capa 1"
     inkscape:groupmode="layer"
     id="layer1"
     transform="translate(-77.316762,-96.38323)">
    <path
       style="fill:#000000;stroke-width:0.264583"
       d="m 90.310591,138.76971 c 0,-0.11628 0.410827,-0.35999 0.912948,-0.54156 0.502123,-0.18156 1.216498,-0.69087 1.5875,-1.13178 0.672346,-0.79904 0.674552,-0.81847 0.674552,-5.94073 v -5.13908 h -8.085407 c -7.916032,0 -8.92144,-0.11194 -7.128433,-0.79363 0.335367,-0.12751 0.94888,-0.67633 1.363361,-1.2196 l 0.753604,-0.98777 0.07368,-12.38259 c 0.07205,-12.10989 0.06194,-12.39433 -0.459301,-12.91557 -0.293137,-0.29314 -1.010901,-0.6094 -1.59503,-0.70281 -2.540908,-0.4063 -0.608804,-0.63136 5.420236,-0.63136 3.56526,0 6.482291,0.10339 6.482291,0.22975 0,0.12636 -0.495707,0.29623 -1.101571,0.37749 -0.605867,0.0813 -1.409539,0.37766 -1.785938,0.65866 l -0.684366,0.51089 -0.06855,13.5314 -0.06855,13.53139 2.449798,-0.003 c 1.347388,-0.002 2.896283,-0.0767 3.441986,-0.16691 l 0.992187,-0.164 v -6.72428 -6.72428 l -0.631896,-0.6319 c -0.347544,-0.34754 -1.061919,-0.71257 -1.5875,-0.81117 -0.525582,-0.0986 -0.955604,-0.29584 -0.955604,-0.43832 0,-0.16609 3.203914,-0.21878 8.929688,-0.14684 8.092624,0.10167 9.123154,0.16522 10.993564,0.67795 5.46936,1.49929 8.83644,4.72649 9.97717,9.56267 0.47408,2.00991 0.41015,6.13787 -0.12696,8.19693 -1.40958,5.40375 -5.49173,9.14401 -11.5703,10.60126 -1.94068,0.46525 -3.12599,0.52664 -10.199516,0.52828 -4.402005,0.001 -8.003646,-0.0933 -8.003646,-0.20958 z m 19.197469,-1.64596 c 2.74125,-1.31944 4.10794,-3.89627 4.59584,-8.66519 0.49529,-4.84125 -0.35643,-9.79316 -2.236,-13.00017 -1.13087,-1.92954 -2.39025,-3.04775 -4.61144,-4.09454 -1.54744,-0.72927 -2.04886,-0.82695 -4.69809,-0.91527 l -2.965761,-0.0989 -0.07695,5.32015 c -0.04232,2.92609 -0.01098,5.32003 0.06962,5.31988 0.08061,-1.5e-4 0.780171,-0.83371 1.554591,-1.85235 1.36806,-1.79951 2.04875,-2.33385 1.76953,-1.38907 -0.0753,0.25466 -0.63884,2.42755 -1.2524,4.82865 -0.61356,2.40109 -1.15244,4.41236 -1.19751,4.46947 -0.0451,0.0571 -0.26342,-0.0468 -0.485218,-0.23083 -0.359018,-0.29796 -0.40327,0.2463 -0.40327,4.96 v 5.29468 l 1.653638,0.42426 c 3.45169,0.88558 5.90094,0.77593 8.28341,-0.37081 z"
       id="path1044"
       sodipodi:nodetypes="cssscssscssssscsccccscccssssssssscccsssscssscsscscscc" />
  </g>
</svg>
