<?xml version="1.0" encoding="UTF-8" standalone="no"?>
<!-- Created with Inkscape (http://www.inkscape.org/) -->

<svg
   width="174.37894mm"
   height="24.912836mm"
   viewBox="0 0 174.37893 24.912837"
   version="1.1"
   id="svg5"
   inkscape:version="1.1.2 (0a00cf5339, 2022-02-04)"
   sodipodi:docname="logo.svg"
   xmlns:inkscape="http://www.inkscape.org/namespaces/inkscape"
   xmlns:sodipodi="http://sodipodi.sourceforge.net/DTD/sodipodi-0.dtd"
   xmlns="http://www.w3.org/2000/svg"
   xmlns:svg="http://www.w3.org/2000/svg">
  <sodipodi:namedview
     id="namedview7"
     pagecolor="#ffffff"
     bordercolor="#999999"
     borderopacity="1"
     inkscape:pageshadow="0"
     inkscape:pageopacity="0"
     inkscape:pagecheckerboard="0"
     inkscape:document-units="mm"
     showgrid="false"
     fit-margin-top="0"
     fit-margin-left="0"
     fit-margin-right="0"
     fit-margin-bottom="0"
     inkscape:zoom="1.28"
     inkscape:cx="344.14063"
     inkscape:cy="135.9375"
     inkscape:window-width="2560"
     inkscape:window-height="1403"
     inkscape:window-x="0"
     inkscape:window-y="0"
     inkscape:window-maximized="1"
     inkscape:current-layer="layer1"
     showguides="true"
     inkscape:guide-bbox="true">
    <sodipodi:guide
       position="84.493521,22.536301"
       orientation="1,0"
       id="guide4032" />
    <sodipodi:guide
       position="84.493521,-20.195899"
       orientation="0,-1"
       id="guide4034" />
    <sodipodi:guide
       position="67.305739,-15.509388"
       orientation="0,-1"
       id="guide4239" />
    <sodipodi:guide
       position="57.653333,-25.273707"
       orientation="0,-1"
       id="guide4241" />
    <sodipodi:guide
       position="84.078545,-16.992222"
       orientation="1,0"
       id="guide7307" />
  </sodipodi:namedview>
  <defs
     id="defs2"><rect
   x="-144.98051"
   y="177.20114"
   width="423.93222"
   height="140.11098"
   id="rect2562" />

	

		
		
	</defs>
  <g
     inkscape:label="Capa 1"
     inkscape:groupmode="layer"
     id="layer1"
     transform="translate(-14.347611,-102.2366)">
    <path
       style="fill:#000000;stroke-width:0.13594"
       d="m 21.02368,124.01426 c 0,-0.0597 0.211078,-0.18496 0.469061,-0.27825 0.257985,-0.0933 0.625022,-0.35496 0.815639,-0.58149 0.345443,-0.41054 0.346576,-0.42052 0.346576,-3.05228 v -2.64039 h -4.154184 c -4.067162,0 -4.583728,-0.0575 -3.662503,-0.40776 0.172307,-0.0655 0.487523,-0.34749 0.700478,-0.62662 l 0.387193,-0.5075 0.03786,-6.36203 c 0.03702,-6.22192 0.03182,-6.36806 -0.235983,-6.63586 -0.150611,-0.15062 -0.519389,-0.31311 -0.819508,-0.3611 -1.305487,-0.20875 -0.312796,-0.32438 2.784852,-0.32438 1.831788,0 3.330523,0.0531 3.330523,0.11804 0,0.0649 -0.254688,0.1522 -0.565974,0.19395 -0.311287,0.0418 -0.724204,0.19404 -0.917593,0.33841 l -0.351619,0.26249 -0.03522,6.95227 -0.03522,6.95227 1.258677,-0.002 c 0.692271,-0.001 1.488075,-0.0394 1.76845,-0.0858 l 0.509774,-0.0843 v -3.45485 -3.45486 l -0.324661,-0.32412 c -0.178564,-0.17856 -0.545601,-0.36611 -0.815638,-0.41677 -0.270038,-0.0507 -0.490978,-0.152 -0.490978,-0.2252 0,-0.0853 1.646132,-0.11241 4.587966,-0.0755 4.157894,0.0522 4.687368,0.0849 5.648362,0.34832 2.810091,0.77032 4.540056,2.42842 5.12615,4.91319 0.243576,1.03267 0.21073,3.15356 -0.06523,4.21148 -0.724225,2.77638 -2.821584,4.69808 -5.94468,5.4468 -0.997098,0.23904 -1.606096,0.27058 -5.24039,0.27142 -2.261697,5.2e-4 -4.112177,-0.0479 -4.112177,-0.10767 z m 9.863429,-0.84567 c 1.408421,-0.67792 2.11061,-2.00186 2.361287,-4.45207 0.254474,-2.48738 -0.183129,-5.03161 -1.148829,-6.67933 -0.581028,-0.99138 -1.228082,-1.5659 -2.369303,-2.10373 -0.795056,-0.37469 -1.052679,-0.42488 -2.413823,-0.47025 l -1.523773,-0.0508 -0.03954,2.73343 c -0.02174,1.50339 -0.0056,2.73337 0.03577,2.73329 0.04142,-7e-5 0.400843,-0.42835 0.798731,-0.95171 0.702892,-0.92457 1.052623,-1.19911 0.909163,-0.71369 -0.03869,0.13084 -0.328228,1.24725 -0.643468,2.4809 -0.31524,1.23365 -0.59211,2.26702 -0.615266,2.29636 -0.02317,0.0293 -0.135342,-0.024 -0.2493,-0.1186 -0.184459,-0.15308 -0.207195,0.12655 -0.207195,2.54839 v 2.72034 l 0.849619,0.21798 c 1.773439,0.455 3.031834,0.39867 4.255918,-0.19051 z"
       id="path1044"
       sodipodi:nodetypes="cssscssscssssscsccccscccssssssssscccsssscssscsscscscc" />
    <g
       id="g7986"
       transform="matrix(1.357265,0,0,1.357265,-11.136168,-90.225835)">
      <g
         aria-label="Nail Arte | Make-up"
         transform="matrix(0.32514501,0,0,0.32514501,88.812794,84.569792)"
         id="text2560"
         style="font-size:40px;line-height:1.25;white-space:pre;shape-inside:url(#rect2562)">
        <path
           d="m -93.020469,183.2318 q -0.08,0.28 -0.28,0.48 -0.2,0.16 -0.48,0.16 0,0 -0.12,0 -0.08,-0.04 -0.44,-0.04 -1.96,0 -4.2,1.44 -2.200001,1.44 -3.400001,5.68 -0.68,2.32 -1.84,9.6 -1.16,7.24 -1.64,11.76 -0.04,0.24 -0.24,0.44 -0.2,0.24 -0.44,0.24 -0.56,0 -0.76,-0.56 -0.68,-2.48 -3.2,-9.56 -2.52,-7.12 -5.04,-13.92 -0.6,6.2 -2.92,12.08 -1.96,5.08 -5.24,7.76 -3.24,2.68 -6.2,3.48 -2.92,0.76 -5.08,0.76 -2.84,0 -5.08,-1 -2.24,-1 -3.52,-2.8 -1.24,-1.8 -1.24,-4.12 0,-2.04 1.2,-3.76 1.2,-1.76 3.16,-2.76 2,-1 4.24,-1 2.48,0 4.16,0.84 1.72,0.84 2.52,1.72 0.84,0.88 1.08,1.36 0.08,0.12 0.08,0.36 0,0.28 -0.2,0.52 -0.2,0.2 -0.52,0.2 -0.44,0 -0.64,-0.36 -0.2,-0.36 -0.88,-1.08 -0.68,-0.76 -2.08,-1.44 -1.4,-0.68 -3.4,-0.68 -1.84,0 -3.52,0.84 -1.68,0.8 -2.72,2.2 -1.04,1.4 -1.04,3.08 0,1.88 1.12,3.36 1.12,1.44 3.04,2.24 1.92,0.8 4.2,0.8 3.8,0 8.2,-2.16 4.4,-2.16 7,-8.92 1.8,-4.6 2.36,-8.48 0.6,-3.88 0.6,-6.32 v -0.4 q 0,-0.32 0.2,-0.52 0.24,-0.24 0.56,-0.24 0.48,0 0.68,0.52 1.08,2.92 3.96,10.88 2.92,7.96 4.56,12.84 0.6,-4.76 1.56,-10.4 0.96,-5.68 1.52,-7.8 0.92,-3.64 3.28,-5.92 2.360001,-2.28 5.800001,-2.28 0.68,0 0.96,0.2 0.32,0.16 0.32,0.56 z"
           style="font-family:Sacramento;-inkscape-font-specification:Sacramento"
           id="path7741" />
        <path
           d="m -84.020535,207.1518 q -1,2 -2.4,3.88 -1.4,1.88 -3.44,1.88 -1.08,0 -1.88,-0.68 -0.8,-0.72 -1.16,-1.84 -0.64,1.12 -1.56,1.76 -0.92,0.64 -1.84,0.64 -1.44,0 -2.32,-0.96 -0.84,-1 -0.84,-2.56 0,-1.92 0.8,-3.32 0.84,-1.44 2.08,-2.16 1.28,-0.72 2.56,-0.72 1.04,0 1.76,0.4 0.72,0.4 1,0.68 0.24,0.24 0.24,0.52 0,0.28 -0.24,0.52 -0.2,0.24 -0.48,0.24 -0.32,0 -0.56,-0.24 -0.2,-0.2 -0.68,-0.4 -0.44,-0.24 -1.12,-0.24 -0.88,0 -1.8,0.52 -0.88,0.52 -1.48,1.56 -0.6,1.04 -0.6,2.56 0,0.84 0.4,1.48 0.4,0.64 1.28,0.64 0.52,0 1.12,-0.44 0.64,-0.44 1.16,-1.32 0.52,-0.92 0.68,-2.16 0.04,-0.28 0.24,-0.44 0.2,-0.2 0.52,-0.2 0.28,0 0.48,0.2 0.2,0.2 0.2,0.48 0.12,1.64 0.48,2.84 0.4,1.2 1.6,1.2 1.24,0 2.44,-1.6 1.24,-1.6 2,-3.32 0.2,-0.44 0.68,-0.44 0.32,0 0.52,0.24 0.2,0.24 0.2,0.52 0,0.16 -0.04,0.28 z"
           style="font-family:Sacramento;-inkscape-font-specification:Sacramento"
           id="path7743" />
        <path
           d="m -82.18054,197.2718 q 0,0.72 -0.52,1.24 -0.52,0.52 -1.24,0.52 -0.76,0 -1.28,-0.52 -0.52,-0.52 -0.52,-1.24 0,-0.76 0.52,-1.28 0.52,-0.52 1.28,-0.52 0.72,0 1.24,0.52 0.52,0.52 0.52,1.28 z m -1.08,0 q 0,-0.28 -0.2,-0.48 -0.2,-0.2 -0.48,-0.2 -0.28,0 -0.48,0.2 -0.2,0.16 -0.2,0.48 0,0.28 0.2,0.48 0.2,0.16 0.48,0.16 0.28,0 0.48,-0.16 0.2,-0.2 0.2,-0.48 z m -2.08,11.44 q 0,-2.84 0.36,-5.6 0.04,-0.32 0.24,-0.48 0.2,-0.2 0.52,-0.2 0.28,0 0.48,0.2 0.2,0.2 0.2,0.52 0,0.28 -0.16,2.16 -0.16,1.88 -0.16,3.32 0,1.84 0.6,2.56 0.64,0.68 1.52,0.68 1.04,0 2.28,-1.44 1.28,-1.44 2.52,-3.92 0.2,-0.4 0.68,-0.4 0.28,0 0.48,0.24 0.24,0.24 0.24,0.48 0,0.12 -0.08,0.36 -1.12,2.24 -2.76,4.24 -1.6,1.96 -3.4,1.96 -1.68,0 -2.64,-1.32 -0.92,-1.36 -0.92,-3.36 z"
           style="font-family:Sacramento;-inkscape-font-specification:Sacramento"
           id="path7745" />
        <path
           d="m -65.860577,207.1918 q -1.2,2.4 -2.64,4.2 -1.4,1.8 -3.36,1.8 -3.04,0 -4.16,-4.4 -1.08,-4.4 -1.08,-9.56 0,-5.8 1.12,-10.44 1.12,-4.68 3.36,-4.68 2.8,0 2.8,5.76 0,3.68 -1.44,7.92 -1.4,4.24 -3.8,8.6 0.48,2.52 1.32,3.92 0.84,1.4 1.96,1.4 1.36,0 2.56,-1.64 1.2,-1.68 2.04,-3.56 0.2,-0.4 0.68,-0.4 0.32,0 0.52,0.24 0.2,0.2 0.2,0.52 z m -9.76,-7.88 q 0,2.32 0.2,4.64 1.8,-3.52 2.96,-7.24 1.16,-3.76 1.16,-6.84 0,-4.28 -1.36,-4.28 -0.8,0 -1.48,2.04 -0.68,2 -1.08,5.2 -0.4,3.2 -0.4,6.48 z"
           style="font-family:Sacramento;-inkscape-font-specification:Sacramento"
           id="path7747" />
        <path
           d="m -20.900647,212.5118 q 0.08,0.08 0.08,0.32 0,0.32 -0.24,0.52 -0.2,0.2 -0.52,0.2 -0.48,0 -0.64,-0.4 -1.32,-2.56 -1.68,-10.24 l -7.44,0.96 q -2.12,0.32 -3.36,0.4 -4.12,4.52 -8.8,6.92 -4.64,2.36 -9.24,2.36 -2.44,0 -4.24,-0.6 -1.76,-0.56 -2.56,-1.12 -0.84,-0.6 -1.32,-0.96 -0.2,-0.28 -0.2,-0.52 0,-0.32 0.24,-0.52 0.2,-0.24 0.48,-0.24 0.32,0 0.56,0.24 0.64,0.64 2.32,1.44 1.68,0.8 4.68,0.8 4.52,0 8.48,-2.12 4,-2.16 7.36,-5.48 -2.76,0.24 -5.48,0.24 -5.84,0 -9.44,-1.4 -3.6,-1.4 -3.6,-4.6 0,-0.96 0.52,-1.96 0.52,-1.04 1.2,-1.72 0.68,-0.72 1.16,-0.72 0.28,0 0.48,0.2 0.24,0.2 0.24,0.52 0,0.44 -0.32,0.6 0,0 -0.48,0.36 -0.44,0.36 -0.92,1.16 -0.44,0.76 -0.44,1.56 0,2.2 3,3.4 3,1.16 8.56,1.16 2.72,0 7.04,-0.4 1.24,-1.36 2.92,-3.6 2.2,-3.12 4.84,-7.28 2.68,-4.16 4.48,-7.12 0.32,-1.4 1.12,-1.4 0.32,0 0.56,0.24 0.28,0.24 0.28,0.6 0,0.48 -0.56,1.12 -0.2,1.16 -0.48,5.04 -0.24,3.84 -0.24,7.6 0,2.12 0.04,3.16 5.16,-0.64 5.68,-0.64 0.28,0 0.52,0.2 0.24,0.2 0.24,0.52 0,0.28 -0.2,0.48 -0.16,0.2 -0.48,0.24 l -5.72,0.68 q 0.28,7.32 1.52,9.8 z m -10.64,-10.08 q 4.2,-0.6 7.6,-1 -0.04,-1.12 -0.04,-3.4 0,-5.96 0.36,-9.6 -4.96,7.84 -7.72,11.68 -0.56,0.8 -1.92,2.52 0.48,-0.04 1.72,-0.2 z"
           style="font-family:Sacramento;-inkscape-font-specification:Sacramento"
           id="path7749" />
        <path
           d="m -12.460696,204.5518 q -0.16,0.88 -0.4,1.64 -0.2,0.72 -0.32,0.96 -0.2,0.44 -0.68,0.44 -0.28,0 -0.52,-0.2 -0.2,-0.24 -0.2,-0.52 0,-0.12 0.16,-0.44 0.16,-0.32 0.48,-1.84 -0.96,0 -1.48,-0.2 -0.56,-0.2 -0.56,-1 0,-0.48 0.36,-1.28 0.32,-0.84 0.8,-1.44 0.52,-0.64 1,-0.64 0.8,0 1.12,0.96 0.32,0.92 0.36,2.08 h 1.24 q 1.1599996,0 1.7199996,0.52 0.6,0.48 0.6,1.56 0,0.76 -0.2,1.88 -0.04,0.28 -0.12,0.96 -0.08,0.64 -0.08,1.12 0,1.28 0.6,1.84 0.6,0.56 1.32,0.56 1.44,0 2.6,-1.44 1.2,-1.48 2.28,-3.56 0.08,-0.16 0.24,-0.28 0.2,-0.12 0.4,-0.12 0.32,0 0.52,0.24 0.23999999,0.2 0.23999999,0.48 0,0.12 -0.08,0.36 -1.36,2.48 -2.8,4.16 -1.4,1.64 -3.4,1.64 -1.44,0 -2.44,-1.04 -0.9599996,-1.08 -0.9599996,-2.88 0,-0.48 0.08,-1.08 0.08,-0.64 0.12,-0.92 0.2,-1.08 0.2,-1.8 0,-0.4 -0.2,-0.56 -0.16,-0.16 -0.72,-0.16 z m -1.32,-1.44 q 0,-0.36 -0.08,-0.84 -0.04,-0.48 -0.16,-0.48 -0.12,0 -0.32,0.48 -0.2,0.48 -0.28,0.84 z"
           style="font-family:Sacramento;-inkscape-font-specification:Sacramento"
           id="path7751" />
        <path
           d="m 13.419283,193.0318 q 0,0.28 -0.2,0.48 -0.2,0.2 -0.52,0.2 H 2.7792834 v 0.24 q 0,2.24 -0.64,5.04 -0.6,2.76 -1.47999995,5.08 -0.84,2.28 -1.48,3.08 0.56,1.92 1.44,3.12 0.87999995,1.16 1.99999995,1.16 1.16,0 2.4,-1.68 1.24,-1.68 1.84,-3.16 0.2,-0.48 0.68,-0.48 0.32,0 0.52,0.24 0.24,0.2 0.24,0.48 0,0.12 -0.08,0.28 -0.68,1.64 -2.12,3.72 -1.44,2.08 -3.4,2.08 -1.75999995,0 -3.07999995,-1.52 -1.28000005,-1.52 -2.00000005,-4.2 -0.68,-2.68 -0.68,-6.12 0,-4.56 0.6,-7.36 h -7.04 q -0.32,0 -0.5200004,-0.2 -0.2,-0.2 -0.2,-0.48 0,-0.28 0.2,-0.48 0.2000004,-0.2 0.5200004,-0.2 h 7.36 q 0.96,-3.2 2.76000005,-3.2 1.71999995,0 2.07999995,3.2 h 9.9999996 q 0.32,0 0.52,0.2 0.2,0.2 0.2,0.48 z m -12.87999955,-2.44 q -0.2,0 -0.56,0.44 -0.32,0.44 -0.64,1.32 H 1.2192834 q -0.2,-1.76 -0.67999995,-1.76 z m -1.84000005,14.6 q 1.16000005,-2.52 1.88000005,-5.72 0.71999995,-3.2 0.71999995,-5.76 h -2.27999995 q -0.60000005,2.68 -0.60000005,7.36 0,2.72 0.28,4.12 z"
           style="font-family:Sacramento;-inkscape-font-specification:Sacramento"
           id="path7753" />
        <path
           d="m 9.2592755,210.4318 q 0.9600005,1.28 2.6400005,1.28 1.72,0 2.96,-1.44 1.28,-1.44 2.28,-3.72 0.2,-0.44 0.68,-0.44 0.28,0 0.48,0.24 0.24,0.24 0.24,0.48 0,0.16 -0.08,0.32 -2.68,6 -6.52,6.04 -2.4400005,0 -3.7200005,-1.68 -1.24,-1.68 -1.24,-3.92 0,-1.96 0.92,-3.28 0.96,-1.32 2.4800005,-1.32 1,0 1.72,0.76 0.76,0.72 0.76,1.88 0,1.52 -1,2.76 -0.96,1.24 -2.6000005,2.04 z m -0.6,-1.24 q 1.24,-0.52 1.9600005,-1.48 0.76,-1 0.76,-2.08 0,-0.56 -0.32,-0.88 -0.28,-0.32 -0.68,-0.32 -0.9600005,0 -1.4400005,1 -0.48,0.96 -0.48,2.24 0,0.72 0.2,1.52 z"
           style="font-family:Sacramento;-inkscape-font-specification:Sacramento"
           id="path7755" />
        <path
           d="m 30.859214,215.2318 q 0,0.32 -0.2,0.52 -0.2,0.2 -0.52,0.2 -0.32,0 -0.56,-0.2 -0.2,-0.2 -0.2,-0.52 0,-0.04 0,-1.04 0.04,-0.96 0.04,-4.6 0,-4.28 -0.08,-9.48 -0.08,-4.52 -0.28,-10.24 -0.2,-5.72 -0.2,-5.88 0,-0.32 0.2,-0.52 0.2,-0.24 0.52,-0.24 0.32,0 0.52,0.2 0.24,0.16 0.24,0.48 l 0.04,0.88 q 0.04,1.24 0.2,6.64 0.16,5.36 0.24,8.64 0.08,4.8 0.08,8.68 0,2.48 -0.04,4.2 0,1.76 0,2.28 z"
           style="font-family:Sacramento;-inkscape-font-specification:Sacramento"
           id="path7757" />
        <path
           d="m 90.259166,187.4318 q -1.6,2.32 -4.08,6.8 -1.76,3.16 -3.52,7.12 -1.76,3.92 -2.92,6.84 -1.12,2.92 -1.44,3.8 -0.2,0.48 -0.72,0.48 -0.24,0 -0.44,-0.16 -0.2,-0.16 -0.24,-0.44 l -1.28,-5.64 -2.72,-11.8 q -2.56,7.28 -5.28,11.4 -2.68,4.12 -5.84,5.84 -3.12,1.68 -7.24,1.68 -2.24,0 -4.6,-0.96 -2.36,-1 -4,-2.96 -1.6,-1.96 -1.6,-4.76 0,-2.08 1.12,-3.68 1.12,-1.64 3,-2.56 1.92,-0.92 4.12,-0.92 2.16,0 3.64,0.64 1.48,0.6 1.48,0.64 0.04,0 1.6,1.56 0.12,0.16 0.12,0.4 0,0.28 -0.24,0.52 -0.2,0.24 -0.52,0.24 -0.4,0 -0.64,-0.36 -0.76,-0.76 -1.04,-0.96 -0.24,-0.24 -1.48,-0.72 -1.2,-0.48 -3,-0.48 -1.8,0 -3.36,0.76 -1.52,0.72 -2.44,2 -0.88,1.28 -0.88,2.92 0,2.32 1.4,3.96 1.4,1.6 3.44,2.4 2.04,0.8 3.92,0.8 3.32,0 5.96,-1.2 2.64,-1.2 5.2,-4.64 2.6,-3.44 5.04,-9.88 0.72,-1.84 1.52,-4.56 -0.6,-3.44 -0.6,-4.92 0,-1.56 0.4,-2.04 0.44,-0.52 1.04,-0.52 1.36,0 1.36,2.56 0,1.92 -0.72,4.88 l 4,17.68 q 4,-10 7.12,-15.68 2.6,-4.64 4.52,-7.28 1.92,-2.64 2.6,-3.32 0.2,-0.24 0.52,-0.24 0.28,0 0.48,0.24 0.24,0.2 0.24,0.52 0,0.16 -0.04,0.28 -0.2,0.4 -0.96,2.52 -0.76,2.12 -1.52,5.12 -0.76,3 -1,5.88 -0.16,2 -0.16,3.2 0,4.6 1.4,7.8 1.44,3.16 4.84,3.28 0.28,0 0.48,0.24 0.2,0.24 0.2,0.52 0,0.28 -0.24,0.48 -0.2,0.24 -0.48,0.24 -0.2,0 -0.6,-0.08 -3.88,-0.56 -5.48,-4 -1.56,-3.48 -1.56,-8.56 0,-3.24 0.6,-6.6 0.6,-3.36 1.52,-6.32 z"
           style="font-family:Sacramento;-inkscape-font-specification:Sacramento"
           id="path7759" />
        <path
           d="m 112.73911,207.1518 q -1,2 -2.4,3.88 -1.4,1.88 -3.44,1.88 -1.08,0 -1.88,-0.68 -0.8,-0.72 -1.16,-1.84 -0.64,1.12 -1.56,1.76 -0.92,0.64 -1.84,0.64 -1.440001,0 -2.320001,-0.96 -0.84,-1 -0.84,-2.56 0,-1.92 0.8,-3.32 0.84,-1.44 2.080001,-2.16 1.28,-0.72 2.56,-0.72 1.04,0 1.76,0.4 0.72,0.4 1,0.68 0.24,0.24 0.24,0.52 0,0.28 -0.24,0.52 -0.2,0.24 -0.48,0.24 -0.32,0 -0.56,-0.24 -0.2,-0.2 -0.68,-0.4 -0.44,-0.24 -1.12,-0.24 -0.88,0 -1.8,0.52 -0.880001,0.52 -1.480001,1.56 -0.6,1.04 -0.6,2.56 0,0.84 0.4,1.48 0.4,0.64 1.280001,0.64 0.52,0 1.12,-0.44 0.64,-0.44 1.16,-1.32 0.52,-0.92 0.68,-2.16 0.04,-0.28 0.24,-0.44 0.2,-0.2 0.52,-0.2 0.28,0 0.48,0.2 0.2,0.2 0.2,0.48 0.12,1.64 0.48,2.84 0.4,1.2 1.6,1.2 1.24,0 2.44,-1.6 1.24,-1.6 2,-3.32 0.2,-0.44 0.68,-0.44 0.32,0 0.52,0.24 0.2,0.24 0.2,0.52 0,0.16 -0.04,0.28 z"
           style="font-family:Sacramento;-inkscape-font-specification:Sacramento"
           id="path7761" />
        <path
           d="m 116.3391,210.1918 q 0.28,0.76 1.04,1.2 0.8,0.4 1.76,0.4 1.32,0 3,-0.96 1.68,-0.96 3.24,-4.28 0.2,-0.44 0.64,-0.44 0.32,0 0.52,0.24 0.24,0.2 0.24,0.48 0,0.16 -0.08,0.32 -1.36,2.88 -3.36,4.52 -2,1.6 -4.2,1.6 -1.72,0 -2.96,-0.96 -1.24,-1 -1.24,-2.28 0,-0.28 0.16,-0.6 0.2,-0.32 0.68,-0.48 1.68,-0.48 2.68,-1.36 1,-0.88 1,-2.04 0,-0.52 -0.36,-0.84 -0.32,-0.36 -0.84,-0.36 -1.44,0 -2.8,2.44 -1.36,2.44 -2,5.04 -0.2,0.68 -0.44,1.08 -0.2,0.4 -0.72,0.4 -0.36,0 -0.6,-0.28 -0.24,-0.24 -0.24,-0.8 l 0.36,-26.28 q 0,-0.28 0.24,-0.48 0.24,-0.24 0.52,-0.24 0.32,0 0.52,0.2 0.2,0.2 0.2,0.52 l -0.32,23.24 q 0.8,-2.56 2.12,-4.44 1.32,-1.88 3.16,-1.88 1.12,0 1.88,0.8 0.8,0.76 0.8,1.88 0,1.64 -1.32,2.84 -1.32,1.2 -3.28,1.8 z"
           style="font-family:Sacramento;-inkscape-font-specification:Sacramento"
           id="path7763" />
        <path
           d="m 127.69908,210.4318 q 0.96,1.28 2.64,1.28 1.72,0 2.96,-1.44 1.28,-1.44 2.28,-3.72 0.2,-0.44 0.68,-0.44 0.28,0 0.48,0.24 0.24,0.24 0.24,0.48 0,0.16 -0.08,0.32 -2.68,6 -6.52,6.04 -2.44,0 -3.72,-1.68 -1.24,-1.68 -1.24,-3.92 0,-1.96 0.92,-3.28 0.96,-1.32 2.48,-1.32 1,0 1.72,0.76 0.76,0.72 0.76,1.88 0,1.52 -1,2.76 -0.96,1.24 -2.6,2.04 z m -0.6,-1.24 q 1.24,-0.52 1.96,-1.48 0.76,-1 0.76,-2.08 0,-0.56 -0.32,-0.88 -0.28,-0.32 -0.68,-0.32 -0.96,0 -1.44,1 -0.48,0.96 -0.48,2.24 0,0.72 0.2,1.52 z"
           style="font-family:Sacramento;-inkscape-font-specification:Sacramento"
           id="path7765" />
        <path
           d="m 147.69903,205.7518 q 0,0.32 -0.2,0.56 -0.2,0.2 -0.48,0.24 l -6.72,0.32 h -0.08 q -0.28,0 -0.52,-0.2 -0.2,-0.2 -0.2,-0.48 0,-0.32 0.2,-0.52 0.2,-0.24 0.52,-0.24 l 6.72,-0.36 q 0.32,0 0.52,0.2 0.24,0.2 0.24,0.48 z"
           style="font-family:Sacramento;-inkscape-font-specification:Sacramento"
           id="path7767" />
        <path
           d="m 156.69898,210.3918 q -0.68,1.12 -1.6,1.76 -0.92,0.64 -1.84,0.64 -1.48,0 -2.36,-1 -0.84,-1.04 -0.84,-2.8 0,-1.64 0.36,-2.88 0.4,-1.28 0.84,-2.08 0.48,-0.8 0.48,-0.68 0.24,-0.24 0.56,-0.24 0.32,0 0.52,0.2 0.2,0.2 0.2,0.52 0,0.16 -0.16,0.48 -0.04,0.08 -0.72,1.2 -0.64,1.08 -0.64,3.48 0,1.12 0.44,1.72 0.48,0.6 1.32,0.6 0.52,0 1.16,-0.44 0.64,-0.44 1.12,-1.28 0.52,-0.88 0.64,-2.08 l 0.28,-3.36 q 0.04,-0.28 0.24,-0.48 0.24,-0.2 0.52,-0.2 0.36,0 0.52,0.24 0.2,0.24 0.2,0.56 l -0.24,3.24 q -0.08,1.24 0.36,2.6 0.48,1.36 1.72,1.36 1.36,0 2.52,-1.6 1.2,-1.6 1.92,-3.32 0.2,-0.44 0.64,-0.44 0.32,0 0.52,0.24 0.24,0.2 0.24,0.48 0,0.08 -0.08,0.32 -0.28,0.76 -1.04,2.08 -0.76,1.32 -2.04,2.52 -1.24,1.16 -2.72,1.16 -1.12,0 -1.92,-0.64 -0.76,-0.68 -1.12,-1.88 z"
           style="font-family:Sacramento;-inkscape-font-specification:Sacramento"
           id="path7769" />
        <path
           d="m 174.21892,207.1518 q 0,1.72 -0.64,3.04 -0.6,1.28 -1.6,1.96 h 0.08 q 2.08,0 3.56,-1.56 1.48,-1.6 2.72,-4.04 0.2,-0.44 0.68,-0.44 0.28,0 0.48,0.24 0.24,0.2 0.24,0.48 0,0.08 -0.08,0.32 -1.2,2.72 -3.08,4.56 -1.88,1.84 -4.48,1.84 -1.04,0 -2.04,-0.36 -0.96,-0.32 -1.68,-0.96 -0.56,-0.44 -0.76,-0.92 l -0.04,-0.08 q -0.12,-0.2 -0.12,-0.36 0,-0.32 0.16,-0.48 0,-0.08 0.08,-0.08 0.2,-0.2 0.44,-0.2 h 0.04 0.16 l 0.04,0.04 q 0.08,0 0.12,0.04 h 0.04 q 0.2,0.12 0.32,0.32 0.04,0.08 0.16,0.28 0.16,0.2 0.4,0.4 0.28,0.16 0.6,0.16 1.04,0 1.88,-1.16 0.84,-1.2 0.84,-3.04 0,-1.32 -0.48,-1.96 -0.44,-0.68 -1,-0.68 -0.76,0 -1.52,1.08 -0.72,1.04 -1.92,3.24 l -0.76,1.44 q -0.12,7.96 -0.44,12.32 -0.28,4.4 -1.24,7.12 -0.96,2.76 -3,2.76 -0.92,0 -1.68,-0.88 -0.76,-0.84 -0.76,-3.12 0,-3.32 1.6,-8.48 1.56,-5.12 4.04,-10.04 l 0.04,-2.64 q -0.28,0.28 -0.6,0.28 -0.32,0 -0.52,-0.24 -0.2,-0.24 -0.2,-0.52 0,-0.16 0.04,-0.28 0.76,-1.8 1,-3.28 0.28,-1.48 0.28,-2.08 0,-0.28 0.2,-0.48 0.24,-0.24 0.52,-0.24 0.32,0 0.52,0.2 0.2,0.2 0.2,0.52 v 6 q 0.16,-0.24 0.92,-1.52 0.8,-1.32 1.6,-1.96 0.8,-0.64 1.68,-0.64 1.32,0 2.12,1.16 0.84,1.16 0.84,2.92 z m -8.68,6.28 q -1.92,4.24 -3.04,8.44 -1.12,4.2 -1.12,6.88 0,2.24 1.12,2.24 1.68,0 2.28,-4.96 0.6,-4.92 0.76,-12.6 z"
           style="font-family:Sacramento;-inkscape-font-specification:Sacramento"
           id="path7771" />
      </g>
      <path
         style="fill:#ff0066;stroke-width:0.00594708"
         d="m 62.884339,148.26822 h -9e-5 c 4.28e-4,-0.01 8.13e-4,-0.0201 8.13e-4,-0.0302 0,-0.40662 -0.342951,-0.75908 -0.766003,-0.75908 -0.309309,0 -0.575613,0.19914 -0.696554,0.45281 h -1.57e-4 c -0.12095,-0.25368 -0.387255,-0.45281 -0.696563,-0.45281 -0.423058,0 -0.76601,0.35246 -0.76601,0.75908 0,0.0101 3.67e-4,0.0202 8.13e-4,0.0302 h -1.13e-4 c 0,0 -0.04324,0.48303 0.494311,1.01041 0.244402,0.24489 0.517748,0.47761 0.967627,0.84328 0.449886,-0.36568 0.723226,-0.5984 0.967634,-0.84328 0.537558,-0.52738 0.49431,-1.01041 0.49431,-1.01041 z"
         id="path7436" />
    </g>
  </g>
</svg>
