<svg id="Layer_5" height="512" viewBox="0 0 512 512" width="512" xmlns="http://www.w3.org/2000/svg" data-name="Layer 5"><path d="m506.653 328.776c-3.608-4.432-4.281-14.299-4.992-24.744-1.391-20.413-3.122-45.817-26.672-59.852-6.601-3.936-13.654-8.598-20.965-13.859-3.802-2.868-9.621.083-9.505 4.87v89.088c0 1.579.622 3.095 1.732 4.218 17.723 18.385 41.873 19.524 59.013 9.102 2.948-1.825 3.639-6.18 1.388-8.822z" fill="#1b3359"/><path d="m402.219 178.809c-10.087-4.759-25.816-6.175-33.016-13.625-4.035-4.271-5.77-11.638-7.606-19.438-4.582-21.909-10.733-29.337-31.554-37.78-5.341-2.326-10.387-4.523-14.139-7.38-2.04-1.554-4.841-1.638-6.97-.215-2.131 1.425-3.121 4.046-2.465 6.523 2.671 10.095 4.033 20.62 4.046 31.277v167.748c.219 9.171 17.573 8.062 23.448 7.615 4.216-.287 8.198-.557 11.519.147 3.09.656 6.503 2.512 10.117 4.478 10.259 5.906 22.765 10.624 31.858.866 1.939-1.833 2.577-2.361 4.345-2.361 1.59 0 2.256.41 3.878 1.926 1.746 1.631 4.292 2.069 6.486 1.118 2.191-.952 3.609-3.113 3.609-5.503v-129.918c0-2.368-1.394-4.516-3.557-5.479z" fill="#1b3359"/><path d="m480.519 247.999c-1.698-1.346-3.529-2.626-5.529-3.818-6.601-3.936-13.654-8.598-20.965-13.859-3.802-2.868-9.621.083-9.505 4.87v89.088c0 1.579.622 3.095 1.732 4.218 10.155 10.534 22.419 15.397 34.267 15.677z" fill="#102442"/><path d="m502.86 326.626c-7.649-1.107-12.771-13.877-17.726-26.225-6.016-14.995-12.236-30.501-25.546-35.988-3.062-1.264-6.572.195-7.834 3.26-1.264 3.063.196 6.571 3.26 7.834 11.294 4.553 17.316 26.799 23.422 40.002-4.898-4.287-8.859-9.19-12.434-13.617-4.809-5.956-8.606-10.661-13.608-12.239-7.626-2.128-11.124 8.774-3.611 11.443 1.55.489 5.21 5.023 7.883 8.334 8.443 10.458 21.193 26.247 44.45 29.069 3.442.588 6.839-2.29 6.879-5.767.131-2.966-2.196-5.719-5.135-6.106z" fill="#2a4d74"/><path d="m480.519 289.317c-4.919-10.982-10.919-20.777-20.93-24.904-3.062-1.264-6.572.195-7.834 3.26-1.264 3.063.196 6.571 3.26 7.834 11.294 4.553 17.316 26.799 23.422 40.002-4.898-4.287-8.859-9.19-12.434-13.617-4.809-5.956-8.606-10.661-13.608-12.239-7.626-2.128-11.124 8.774-3.611 11.443 1.55.489 5.21 5.023 7.883 8.334 5.526 6.845 12.898 15.972 23.853 22.254v-42.366z" fill="#1b3359"/><path d="m346.515 138.172c0-7.692-.563-15.254-1.629-22.655-3.911-2.688-8.744-5.077-14.843-7.551-5.341-2.326-10.387-4.523-14.139-7.38-2.04-1.554-4.841-1.638-6.97-.215-2.131 1.425-3.121 4.046-2.465 6.523 2.671 10.095 4.033 20.62 4.046 31.277v167.748c.219 9.171 17.573 8.062 23.448 7.615 4.216-.287 8.198-.557 11.519.147.34.072.686.165 1.033.264v-175.775z" fill="#102442"/><path d="m154.938 337.043c-21.685-12.57-37.512-22.312-47.973-46.4-.974-2.25-3.177-3.667-5.669-3.617-2.451.066-4.615 1.616-5.466 3.916-.524 1.418-1.331 2.645-2.264 4.064-2.222 3.38-4.985 7.586-4.985 15.465.096 8.652 2.927 12.225 5.632 16.449-7.521-2.227-16.926-6.778-16.193-15.536.667-7.985-1.458-16.887-4.149-28.157-2.947-12.343-6.616-27.705-7.494-46.687-.113-2.449-1.705-4.583-4.021-5.389-3.771-1.569-8.302 1.482-8.184 5.593 0 14.807-7.143 31.898-14.705 49.994-17.002 40.682-38.16 91.311 12.811 144.069 2.084 2.228 5.816 2.445 8.138.46 17.491-14.423 32.222-16.088 32.333-16.1 1.968-.18 3.727-1.327 4.694-3.05.098-.174 9.958-17.454 26.116-22.167 8.991-2.672 20.565-4.436 30.188-6.01 2.647-.883 4.299-3.451 4.085-6.159v-35.607c0-2.1-1.098-4.046-2.894-5.133z" fill="#1b3359"/><path d="m367.437 500.147c-25.826-79.562-71.798-93.966-84.258-96.444-1.395-2.121-3.688-5.329-6.803-8.777-1.19-1.319-2.882-2.07-4.683-1.974-7.288.274-14.174-4.257-16.749-11.035-.673-1.771-2.143-3.119-3.965-3.639-42.113-11.071-88.717-11.047-130.781.154-16.838 4.911-27.756 19.332-31.654 25.272-12.467 2.481-58.429 16.892-84.251 96.442-.593 1.826-.275 3.826.854 5.38s2.934 2.473 4.854 2.473h351.729c3.926.106 7.047-4.127 5.707-7.853z" fill="#ff86ae"/><path d="m10 508h2.678c26.38-60.181 64.658-72.064 75.866-74.295 3.898-5.94 14.816-20.361 31.654-25.272 42.064-11.201 88.668-11.226 130.781-.154 1.822.52 3.292 1.868 3.965 3.639 2.575 6.778 9.461 11.31 16.749 11.035 1.801-.097 3.492.654 4.683 1.974 3.115 3.448 5.408 6.656 6.803 8.777 11.202 2.229 49.489 14.107 75.873 74.297h2.678c3.926.106 7.047-4.127 5.707-7.853-25.826-79.562-71.798-93.966-84.258-96.444-1.395-2.121-3.688-5.329-6.803-8.777-1.19-1.319-2.882-2.07-4.683-1.974-7.288.274-14.174-4.257-16.749-11.035-.673-1.771-2.143-3.119-3.965-3.639-42.113-11.071-88.717-11.047-130.781.154-16.838 4.911-27.756 19.332-31.654 25.272-12.467 2.481-58.429 16.892-84.251 96.442-.593 1.826-.275 3.826.854 5.38s2.934 2.473 4.854 2.473z" fill="#ffa6c8"/><path d="m502 404.028h-19.079c-9.925 0-18 8.075-18 18v67.972c0 3.309-2.691 6-6 6h-21.773c-3.309 0-6-2.691-6-6v-57.622c0-3.313-2.687-6-6-6s-6 2.687-6 6v57.622c0 9.925 8.075 18 18 18h21.773c9.925 0 18-8.075 18-18v-67.972c0-3.309 2.691-6 6-6h19.079c7.907-.25 7.968-11.724 0-12z" fill="#c6cbcc"/><rect fill="#ff86ae" height="66.26" rx="6" width="40.988" x="404.653" y="372.118"/><path d="m222.844 336.949c-1.889-1.065-4.201-1.027-6.054.094-17.432 12.08-38.136 14.204-56.654 3.145 0 0-5.197-3.145-5.197-3.145-3.794-2.464-9.253.601-9.106 5.133v36.077c0 1.73.747 3.376 2.049 4.516s3.036 1.661 4.748 1.432c22.055-2.955 44.421-2.955 66.472 0 1.701.229 3.447-.29 4.748-1.432 1.302-1.14 2.049-2.785 2.049-4.516v-36.077c0-2.166-1.167-4.163-3.054-5.227z" fill="#f7bfa9"/><path d="m147.709 360.72c11.54 6.986 24.734 10.679 38.156 10.679s26.614-3.692 38.157-10.679l1.875-1.135v-17.409c0-2.166-1.167-4.163-3.054-5.227-1.889-1.065-4.201-1.027-6.054.094-17.432 12.08-38.136 14.204-56.654 3.145 0 0-5.197-3.145-5.197-3.145-3.794-2.464-9.253.601-9.106 5.133v17.407l1.877 1.136z" fill="#dd9b90"/><path d="m240.366 125.562c-.365-1.567-1.346-2.923-2.72-3.76-47.555-30.118-115.584-11.202-140.397 39.532-.439.849-.668 1.793-.668 2.751v24.763c0 4.284-1.198 6.105-3.013 8.863-2.222 3.378-4.987 7.582-4.987 15.46s2.766 12.081 4.987 15.459c1.814 2.759 3.013 4.581 3.013 8.865s-1.198 6.105-3.013 8.863c-2.222 3.378-4.987 7.582-4.987 15.46s2.766 12.081 4.987 15.459c1.814 2.759 3.013 4.581 3.013 8.865.276 3.547-2.073 6.019-.632 9.262 7.644 17.684 20.389 32.3 36.858 42.269l21.115 12.78c9.851 5.963 20.896 8.944 31.942 8.944s22.091-2.981 31.943-8.944l21.084-12.763c.201-.094.355-.241.549-.343 1.785-1.09 2.874-3.03 2.874-5.121v-189.835c0-5.627-.655-11.289-1.949-16.83z" fill="#ffd5ae"/><path d="m439.642 372.118h-28.988c-3.313 0-6 2.687-6 6v29.978c.292.009.583.022.877.022h39.234c.294 0 .585-.014.877-.022v-29.978c0-3.313-2.687-6-6-6z" fill="#e26187"/><rect fill="#8896db" height="36.063" rx="6" width="51.234" x="399.53" y="348.055"/><path d="m283.089 457.994c-2.666-1.969-6.422-1.401-8.391 1.264-.271.367-27.898 36.742-94.719 36.742s-91.804-18.715-92.24-19.049c-2.585-2.048-6.341-1.628-8.405.946-2.074 2.584-1.661 6.36.923 8.435 1.102.885 27.818 21.668 99.723 21.668 72.813 0 103.118-39.916 104.373-41.615 1.968-2.666 1.402-6.423-1.264-8.391z" fill="#ffa6c8"/><path d="m206.315 107.385v240.583c0 2.604.211 5.175.602 7.701 8.029-2.574 25.03-14.024 32.524-18.32 1.785-1.09 2.874-3.03 2.874-5.121v-189.835c0-5.627-.655-11.289-1.949-16.83-.365-1.567-1.346-2.923-2.72-3.76z" fill="#f7bfa9"/><path d="m144.985 217.126c-2.411-.828-5.005-.131-6.581 1.863-.703.747-3.961 3.711-9.403 1.199-3.008-1.385-6.573-.074-7.963 2.934-1.388 3.009-.075 6.574 2.934 7.963 4.846 2.235 9.267 2.466 12.993 1.7v8.152c0 3.313 2.687 6 6 6s6-2.687 6-6v-18.047c0-2.562-1.555-4.933-3.979-5.765z" fill="#dd9b90"/><g fill="#dd9b90"><path d="m236.319 189.035c-6.781.166-13.187 2.926-17.983 7.722-3.794 3.687-.98 10.332 4.242 10.242 1.535 0 3.071-.586 4.242-1.758 2.592-2.591 6.035-4.086 9.697-4.209 7.804-.518 7.608-11.744-.198-11.997z"/><path d="m116.057 196.756c-3.793 3.689-.982 10.333 4.242 10.243 1.535 0 3.071-.586 4.242-1.757 5.616-5.617 14.752-5.615 20.368 0 2.342 2.344 6.143 2.344 8.484 0 2.344-2.343 2.344-6.142 0-8.484-10.292-10.294-27.043-10.294-37.337 0z"/><path d="m196.049 260.903c-5.615 5.616-14.753 5.614-20.368 0-2.342-2.344-6.143-2.344-8.484 0-2.344 2.343-2.344 6.142 0 8.484 10.293 10.295 27.044 10.294 37.337 0 5.421-5.806-2.674-13.908-8.484-8.484z"/></g><path d="m211.498 287.622h-51.267c-3.313 0-6 2.687-6 6 1.739 41.968 61.537 41.951 63.267 0 0-3.313-2.687-6-6-6z" fill="#da387d"/><path d="m405.775 314.206v-129.918c0-2.368-1.394-4.516-3.557-5.479-9.566-4.513-24.193-6.029-31.82-12.527-.401 2.327-.622 4.715-.622 7.155v150.657c6.302 1.338 12.537.452 17.681-5.068 1.939-1.833 2.577-2.361 4.345-2.361 1.59 0 2.256.41 3.878 1.926 1.746 1.631 4.292 2.069 6.486 1.118 2.191-.952 3.609-3.113 3.609-5.503z" fill="#102442"/><g><g fill="#2a4d74"><path d="m316.222 157.836c3.104 6.606 9.304 10.658 14.774 14.232 3.768 2.461 7.325 4.786 9.095 7.376 2.071 3.032 3.01 7.508 4.003 12.246 1.333 6.357 2.711 12.933 7.213 17.822 5.002 5.432 12.116 7.547 18.394 9.412 4.256 1.266 8.275 2.46 10.532 4.351 3.31 2.773 5.675 7.411 7.962 11.896 2.073 4.064 4.216 8.267 7.244 11.434 5.623 5.55 13.992-2.365 8.674-8.291-1.811-1.895-3.471-5.149-5.227-8.594-6.367-12.863-11.109-18.519-25.766-22.297-5.257-1.564-10.223-3.039-12.984-6.038-2.263-2.459-3.251-7.169-4.296-12.156-1.135-5.414-2.422-11.55-5.84-16.553-3.115-4.562-7.855-7.658-12.439-10.653-4.536-2.964-8.82-5.764-10.477-9.288-1.506-3.206-3.286-7.032-5.073-11.11-1.33-3.035-4.872-4.418-7.903-3.087-3.035 1.329-4.417 4.868-3.087 7.903 1.842 4.204 3.663 8.12 5.202 11.396z"/><path d="m312.627 204.889c4.92 16.063 6.522 23.412 22.637 27.329 7.868 2.07 8.917 3.145 12.479 10.412 5.791 12.438 12.085 15.716 25.552 14.996 3.101-.083 6.309-.17 8.025.587 6.798 2.662 15.4 22.418 23.609 12.07 1.697-2.847.766-6.53-2.081-8.226-1.467-.875-3.305-2.986-5.082-5.029-3.099-3.559-6.61-7.594-11.607-9.796-4.18-1.842-8.756-1.72-13.184-1.602-3.658.097-7.446.199-9.527-1.031-1.787-1.057-3.421-4.279-5.002-7.396-4.775-10.032-9.019-13.756-19.885-16.522-3.487-.996-7.093-2.027-8.506-3.734-2.959-3.842-5.75-15.498-7.839-21.689-1.032-3.148-4.421-4.867-7.57-3.832-3.149 1.032-4.864 4.422-3.832 7.57.587 1.791 1.183 3.784 1.813 5.894z"/><path d="m405.733 291.436c-.564-4.127-4.25-5.843-8.072-5.15-1.09 0-3.94-1.866-5.833-3.105-8.741-6.014-14.419-7.423-24.637-3.426-2.907 1.008-6.202 2.146-7.826 1.613-1.382-.456-3.306-3.391-4.852-5.748-5.047-8.145-9.152-11.312-18.884-12.763-3.091-.576-6.594-1.228-7.681-2.584-1.851-2.308-4.099-9.686-5.699-14.897-2.563-7.489-13.546-4.173-11.471 3.524 4.967 15.652 6.391 23.387 22.654 25.755 2.545.474 5.176.963 6.418 1.784 1.497.988 3.088 3.415 4.627 5.762 2.702 4.121 5.765 8.793 11.12 10.562 5.48 1.813 10.816-.036 15.523-1.669 2.442-.847 5.217-1.817 6.657-1.631 2.123.257 4.845 2.038 7.478 3.761 3.806 2.49 7.736 5.063 12.403 5.063.942-.008 1.908-.079 2.821-.186 3.291-.39 5.643-3.374 5.252-6.664z"/></g><g fill="#1b3359"><path d="m405.775 241.854v1.153c.04-.378.042-.763 0-1.153z"/><path d="m388.194 235.171c2.073 4.064 4.216 8.267 7.244 11.434 4.18 4.125 9.873.81 10.337-3.598v-1.153c-.125-1.18-.637-2.397-1.663-3.54-1.812-1.896-3.471-5.149-5.228-8.594-6.367-12.863-11.109-18.519-25.766-22.297-1.136-.338-2.253-.674-3.343-1.02v12.544c4.228 1.257 8.213 2.448 10.456 4.328 3.31 2.773 5.675 7.411 7.962 11.896z"/><path d="m373.295 257.626c3.102-.083 6.31-.17 8.025.587 6.798 2.662 15.4 22.418 23.608 12.07 1.697-2.847.766-6.53-2.081-8.226-1.467-.875-3.305-2.986-5.082-5.029-3.099-3.559-6.61-7.594-11.607-9.796-4.18-1.842-8.756-1.72-13.184-1.602-1.072.028-2.15.053-3.198.049v12.028c1.122.005 2.28-.014 3.519-.08z"/><path d="m377.779 289.461c2.123.257 4.845 2.038 7.478 3.761 3.806 2.49 7.736 5.063 12.403 5.063.942-.008 1.908-.079 2.821-.186 3.291-.39 5.643-3.374 5.252-6.664-.564-4.127-4.25-5.844-8.072-5.15-1.09 0-3.94-1.866-5.833-3.105-7.972-5.485-13.407-7.125-22.052-4.341v12.715c.453-.154.903-.309 1.346-.463 2.442-.847 5.217-1.817 6.657-1.631z"/></g><g fill="#1b3359"><path d="m316.222 157.836c3.104 6.606 9.304 10.658 14.774 14.232 3.768 2.461 7.325 4.786 9.095 7.376 2.071 3.032 3.01 7.508 4.003 12.246.667 3.181 1.346 6.417 2.421 9.469v-32.484c-2.693-2.542-5.854-4.626-8.955-6.653-4.536-2.964-8.82-5.764-10.477-9.288-1.506-3.206-3.286-7.032-5.073-11.11-1.33-3.035-4.872-4.418-7.903-3.087-2.27.994-3.614 3.224-3.592 5.554v.032c.012.776.174 1.562.505 2.317 1.842 4.204 3.663 8.12 5.202 11.396z"/><path d="m312.627 204.889c4.92 16.063 6.522 23.412 22.637 27.329 6.892 1.813 8.552 2.864 11.251 7.979v-16.727c-2.214-1.096-4.799-1.987-7.954-2.79-3.487-.996-7.093-2.027-8.506-3.734-2.959-3.842-5.75-15.498-7.839-21.689-1.032-3.148-4.421-4.867-7.57-3.832-2.552.836-4.161 3.22-4.131 5.77v.033c.01.586.106 1.181.299 1.768.587 1.791 1.183 3.784 1.813 5.894z"/><path d="m335.63 262.856c-3.091-.576-6.594-1.228-7.681-2.584-1.851-2.309-4.099-9.686-5.699-14.897-2.562-7.489-13.546-4.173-11.471 3.523 4.967 15.652 6.391 23.387 22.654 25.755 2.545.474 5.176.963 6.418 1.784 1.497.988 3.088 3.415 4.627 5.762.648.989 1.319 2.01 2.036 3.015v-18.686c-2.813-1.864-6.191-2.971-10.885-3.671z"/></g></g><path d="m300.218 436.252c-.246-1.14-2.771-11.637-15.613-30.262-.693-1.192-3.521-5.854-8.229-11.064-1.19-1.319-2.882-2.048-4.683-1.974-7.288.274-14.174-4.257-16.749-11.035-.673-1.771-2.143-3.119-3.965-3.639-42.113-11.071-88.717-11.047-130.781.154-19.9 5.804-31.532 24.892-33.078 27.564-12.837 18.621-15.362 29.116-15.608 30.256-.7 3.238 1.352 6.456 4.591 7.156 3.155.708 6.438-1.308 7.127-4.571.021-.093 2.295-9.432 13.91-26.231.105-.153.211-.323.303-.486.098-.174 9.958-17.454 26.116-22.167 39.138-10.379 82.113-10.508 121.476-.85 4.656 8.998 13.964 15.102 24.107 15.795 3.8 4.641 4.842 6.809 5.448 7.708 11.615 16.8 13.889 26.139 13.899 26.182 1.939 7.701 13.14 5.289 11.729-2.535z" fill="#e26187"/><path d="m438.519 155.437h-26.742c-9.925 0-18 8.075-18 18v180.618c0 3.313 2.687 6 6 6h50.742c3.313 0 6-2.687 6-6v-180.618c0-9.925-8.075-18-18-18z" fill="#b4d9fb"/><path d="m438.519 155.437h-7v168.618c0 3.313-2.687 6-6 6h-31.742v24c0 3.313 2.687 6 6 6h50.742c3.313 0 6-2.687 6-6v-180.618c0-9.925-8.075-18-18-18z" fill="#91caed"/><path d="m188.343 4c-37.86.015-74.333 16.147-99.643 44.367l-15.872 21.592c-12.26 20.532-18.631 44.205-18.656 68.213v89.811c0 24.466 4.449 43.083 8.024 58.042 2.442 10.221 4.372 18.293 3.864 24.36-.927 11.093 5.544 20.223 18.22 25.708 8.606 3.725 17.33 4.64 17.697 4.677 1.688.172 3.368-.382 4.627-1.519 1.259-1.138 1.977-2.755 1.977-4.451 0-7.878-2.766-12.083-4.987-15.461-1.814-2.759-3.013-4.581-3.013-8.867s1.198-6.108 3.013-8.867c2.222-3.378 4.987-7.583 4.987-15.461s-2.766-12.081-4.987-15.459c-1.814-2.759-3.013-4.581-3.013-8.865s1.198-6.106 3.013-8.865c2.222-3.377 4.987-7.581 4.987-15.458s-2.766-12.081-4.987-15.459c-1.814-2.759-3.013-4.581-3.013-8.865s1.198-6.106 3.013-8.865c2.222-3.377 4.987-7.581 4.987-15.458v-23.28c21.857-42.854 79.315-59.282 120.623-34.814.738 3.854 1.111 7.759 1.111 11.639v205.575c0 6.85 2.668 13.289 7.512 18.134 2.577 2.576 3.996 6.002 3.996 9.647 0 10.589 5.484 20.055 14.67 25.321 9.184 5.267 20.123 5.218 29.264-.132l20.006-11.71c10.333-6.048 16.752-17.243 16.752-29.217v-221.84c0-73.982-60.189-134.172-134.172-134.172z" fill="#2a4d74"/><path d="m277.85 38.311c12.468 20.362 19.665 44.286 19.665 69.861v221.84c0 11.974-6.419 23.169-16.752 29.217l-20.006 11.71c-5.899 3.453-12.545 4.684-18.987 3.717.029.362.053.726.053 1.094 0 10.589 5.484 20.055 14.67 25.321 9.184 5.267 20.123 5.218 29.264-.132l20.006-11.71c10.333-6.048 16.752-17.243 16.752-29.217v-221.84c0-39.62-17.267-75.278-44.665-99.861z" fill="#1b3359"/><path d="m316.515 354.012c-3.313 0-6 2.687-6 6 0 7.729-4.144 14.956-10.814 18.861l-20.006 11.71c-11.189 6.779-26.081-1.733-25.871-14.834 0-6.85-2.668-13.29-7.511-18.133-2.577-2.578-3.997-6.005-3.997-9.648v-205.575c.261-39.735-32.886-74.104-73.875-73.875-3.313 0-6 2.686-6 6s2.687 6 6 6c19.288 0 36.539 8.875 47.895 22.752-16.031-8.651-41.888-16.019-82.333-12.878-3.304.257-5.773 3.144-5.518 6.447.258 3.304 3.152 5.748 6.447 5.518 47.021-3.127 77.888 6.08 93.942 26.796.934 4.269 1.44 8.695 1.44 13.24v205.575c0 6.849 2.667 13.288 7.512 18.133 2.577 2.578 3.996 6.004 3.996 9.648-.247 22.305 24.768 36.694 43.934 25.189 0 0 20.006-11.709 20.006-11.709 10.333-6.048 16.752-17.243 16.752-29.217 0-3.313-2.687-6-6-6z" fill="#1b3359"/><g><g fill="#fcdc45"><path d="m478.658 84.56c-23.996 0-39.501-15.505-39.501-39.501 0-3.313-2.687-6-6-6s-6 2.687-6 6c0 23.996-15.505 39.501-39.5 39.501-3.313 0-6 2.687-6 6s2.687 6 6 6c23.995 0 39.5 15.505 39.5 39.501 0 3.313 2.687 6 6 6s6-2.687 6-6c0-23.996 15.505-39.501 39.501-39.501 7.916-.263 7.964-11.719 0-12z"/><path d="m397.178 43.859c0-3.313-2.687-6-6-6-16.924 0-27.859-10.936-27.859-27.859 0-3.313-2.687-6-6-6s-6 2.687-6 6c0 16.924-10.936 27.859-27.86 27.859-3.313 0-6 2.687-6 6s2.687 6 6 6c16.925 0 27.86 10.936 27.86 27.86 0 3.313 2.687 6 6 6s6-2.687 6-6c0-16.925 10.936-27.86 27.859-27.86 3.313 0 6-2.687 6-6z"/><path d="m118.65 55.795c-16.925 0-27.86-10.936-27.86-27.86-.266-7.923-11.721-7.958-12 0 0 16.925-10.936 27.86-27.859 27.86-3.313 0-6 2.687-6 6s2.687 6 6 6c16.924 0 27.859 10.936 27.859 27.859 0 3.313 2.687 6 6 6s6-2.687 6-6c0-16.924 10.936-27.859 27.86-27.859 7.923-.266 7.958-11.721 0-12z"/></g><g><path d="m478.658 84.56c-23.996 0-39.501-15.505-39.501-39.501-.262-7.924-11.725-7.955-12 0 0 30.805 20.696 51.501 51.501 51.501 3.313 0 6-2.687 6-6s-2.687-6-6-6z" fill="#ffee93"/><path d="m387.657 84.56c-7.935.275-7.95 11.721 0 12 23.995 0 39.5 15.505 39.5 39.501 0 3.313 2.687 6 6 6s6-2.687 6-6c0-30.805-20.696-51.501-51.5-51.501z" fill="#f9bd46"/><path d="m391.178 49.859c7.937-.275 7.947-11.722 0-12-16.924 0-27.859-10.936-27.859-27.859 0-3.313-2.687-6-6-6s-6 2.687-6 6c0 23.841 16.019 39.859 39.859 39.859z" fill="#ffee93"/><path d="m323.458 37.859c-7.937.275-7.947 11.722 0 12 16.925 0 27.86 10.936 27.86 27.86 0 3.313 2.687 6 6 6s6-2.687 6-6c0-23.842-16.019-39.86-39.86-39.86z" fill="#f9bd46"/><path d="m118.65 55.795c-16.925 0-27.86-10.936-27.86-27.86-.265-7.929-11.725-7.951-12 0 0 23.842 16.019 39.86 39.86 39.86 7.937-.275 7.947-11.722 0-12z" fill="#ffee93"/><path d="m50.931 55.795c-7.937.275-7.947 11.722 0 12 16.924 0 27.859 10.936 27.859 27.859 0 3.313 2.687 6 6 6s6-2.687 6-6c0-23.841-16.019-39.859-39.859-39.859z" fill="#f9bd46"/></g></g></svg>