<svg id="Layer_5" height="512" viewBox="0 0 512 512" width="512" xmlns="http://www.w3.org/2000/svg" data-name="Layer 5"><path d="m257.064 51.835h74.272c94.131 0 170.553 76.422 170.553 170.553 0 117.203-95.154 212.357-212.357 212.357h-183.463c-52.96 0-95.957-42.997-95.957-95.957v-40c0-136.297 110.655-246.952 246.952-246.952z" fill="#ffd6b2"/><path d="m331.336 51.835h-74.272c-88.495 0-166.103 46.558-209.706 116.505 7.142 3.298 14.955 5.03 22.858 5.03h.004c5.839 0 11.605-.932 17.141-2.769 82.145-27.256 182.644-56.38 218.351-56.38 2.491 0 3.664.172 3.962.224 21.286 3.734 70.138 17.733 137.596 39.431 4.131 1.321 8.363 1.991 12.578 1.991 9.127 0 17.726-3.172 24.612-8.646-27.787-56.499-85.911-95.386-153.126-95.386z" fill="#f7bfa9"/><g fill="#fcdc45"><path d="m502 37.86c-16.924 0-27.86-10.936-27.86-27.86-.266-7.923-11.721-7.958-12 0 0 16.924-10.936 27.86-27.86 27.86-3.313 0-6 2.687-6 6s2.687 6 6 6c16.924 0 27.86 10.936 27.86 27.86 0 3.313 2.687 6 6 6s6-2.687 6-6c0-16.924 10.936-27.86 27.86-27.86 7.923-.266 7.958-11.721 0-12z"/><path d="m77.72 189.023c-16.924 0-27.86-10.936-27.86-27.86-.266-7.923-11.721-7.958-12 0 0 16.924-10.936 27.86-27.86 27.86-3.313 0-6 2.687-6 6s2.687 6 6 6c16.924 0 27.86 10.936 27.86 27.86 0 3.313 2.687 6 6 6s6-2.687 6-6c0-16.924 10.936-27.86 27.86-27.86 7.923-.266 7.958-11.721 0-12z"/></g><path d="m446.529 233.201c-31.009-41.282-106.83-92.433-190.734-87.798-104.592 2.673-175.609 60.572-201.781 117.188-1.267 3.061.187 6.57 3.25 7.837 2.987 1.258 6.57-.157 7.838-3.25 49.357-106.138 219.636-146.851 324.871-69.962 30.401 21.036 46.737 42.89 46.895 43.104 4.783 6.169 14.197-.442 9.661-7.118z" fill="#dd9b90"/><path d="m497.59 265.102c-1.78-3.083-2.911-5.043-3.006-5.207-7.454-13.083-21.013-20.992-36.291-21.161h-.275c-15.298.005-29.339 8.193-36.666 21.374-.084.141-.168.282-.251.426 0 0-24.283 42.066-26.773 46.379l-.023.003-6.782 11.781c-2.367 4.091-3.486 8.572-3.355 13.006v80.823c57.52-28.685 100.202-82.688 113.422-147.425z" fill="#f7bfa9"/><path d="m494.479 234.13c-1.513-1.504-3.709-2.091-5.772-1.543-16.988 4.521-37.583-6.103-63.655-19.55-36.402-18.776-81.705-42.143-142.478-37.398-4.571.312-7.095 5.699-4.458 9.472.906 1.628 2.517 2.743 4.361 3.017 79.778 11.845 128.81 76.665 129.293 77.314.612.826 1.426 1.48 2.364 1.901 20.086 8.662 37.735 12.179 56.103 3.905 19.971-9.588 25.591-30.471 25.821-31.355.536-2.065-.065-4.259-1.578-5.763z" fill="#8896db"/><g fill="#2a4d74"><path d="m92.418 243.638c-6.812-4.091-13.044 5.516-6.529 10.068 2.822 1.83 5.991 4.814 6.478 6.088 1.415 7.743 12.607 6.19 11.889-1.621-.862-6.923-9.279-12.876-11.838-14.536z"/><path d="m97.296 212.533c-7.694-1.958-10.914 9.026-3.362 11.52 11.452 3.343 15.422 12.411 15.91 15.324.491 2.933 3.032 5.01 5.91 5.01 3.665.031 6.568-3.374 5.925-6.992-1.081-6.453-7.567-19.953-24.382-24.861z"/><path d="m115.767 190.539c-7.639-2.192-11.176 8.699-3.708 11.413 10.079 3.274 14.494 13.829 15.501 17.408-1.497 5.395 4.851 9.729 9.438 6.523 1.539-1.055 3.249-3.173 2.657-7.276-1.003-6.951-8.162-22.958-23.889-28.068z"/><path d="m142.956 168.022c-7.395-2.889-11.939 7.619-4.75 11.02 11.326 4.882 13.778 18.207 13.977 22.148-1.923 3.845 1.262 8.703 5.582 8.571 5.567-.128 6.679-5.68 6.425-8.548-.17-8.388-4.828-26.119-21.234-33.19z"/><path d="m179.409 148.625c-6.915-3.905-12.895 5.856-6.26 10.238 12.322 7.533 11.305 23.154 10.444 27.282-2.933 3.842.106 9.695 4.952 9.59 5.315.007 6.774-5.721 7.088-8.868 1.753-11.995-1.445-29.208-16.224-38.243z"/><path d="m224.963 136.119c-6.16-5.012-13.696 3.606-7.891 9.041 13.131 11.46 6.296 28.804 4.825 32.061-3.929 3.663-1.176 10.429 4.229 10.4 4.281-.057 6.289-3.539 8.242-9.161 2.126-6.152 7.731-27.387-9.405-42.341z"/><path d="m267.226 132.874c-2.541 2.127-2.876 5.912-.749 8.452 12.617 15.07 1.224 31.541-.866 34.276-2.073 1.343-3.18 3.891-2.573 6.43.625 2.679 3.133 4.673 5.886 4.656 4.715 0 7.86-5.699 9.781-9.178 4.028-7.297 11.797-26.182-3.026-43.888-2.128-2.541-5.913-2.875-8.452-.749z"/><path d="m315.805 130.997c-2.795 1.78-3.619 5.488-1.839 8.284 12.432 19.529-5.475 41.09-7.856 43.777-4.174 2.648-3.209 9.414 1.631 10.769 4.416 1.344 7.358-2.453 10.133-6.153 2.961-3.919 8.318-12.018 10.923-22.223 3.006-11.775 1.378-23.053-4.708-32.614-1.78-2.795-5.488-3.62-8.284-1.839z"/><path d="m370.085 136.049c-3.717-7.011-14.018-2.025-10.791 5.25 10.871 22.345-13.69 51.397-18.643 55.974-3.819 2.456-3.348 8.618.898 10.44 3.261 1.685 6.58-.686 8.233-2.615 1.467-1.507 35.756-37.288 20.303-69.05z"/><path d="m404.187 141.352c-2.94-7.365-13.719-3.523-11.292 4.062 10.178 28.3-22.294 65.996-24.394 68.354-2.948 2.479-2.524 7.652.867 9.588 2.167 1.33 4.973 1.134 6.952-.477.442-.36 41.216-44.411 27.867-81.527z"/><path d="m431.88 176.131c-1.242-7.848-12.606-6.454-11.91 1.463 3.971 32.326-28.782 50.679-29.115 50.85 1.676-.859 4.437-.934 6.541.937l-7.946 8.992c1.342 1.342 4.545 2.172 7.028.672 11.265-5.953 39.585-28.86 35.402-62.913z"/><path d="m446.729 202.708c-3.25-.613-6.393 1.532-7.004 4.79-6.054 32.245-30.082 38.157-31.167 38.407-3.221.715-5.263 3.898-4.564 7.126.687 3.261 3.978 5.305 7.133 4.595 1.336-.289 32.813-7.546 40.392-47.914.611-3.256-1.533-6.393-4.79-7.004z"/></g><path d="m421.409 258.296c-94.197-119.604-271.797-109.365-337.991 20.199-1.789 3.604-3.826 6.118-7.168 9.992-8.779 10.354-22.046 26.003-10.226 48.376 5.875 11.121 16.802 11.711 30.635 12.458 25.193.532 49.643 7.225 74.779 19.712 19.314 8.927 39.187 18.115 69.172 18.115 93.922-.149 162.058-66.736 181.676-123.397.614-1.852.287-3.887-.876-5.455z" fill="#e3eae8"/><path d="m421.409 258.296c-7.455-9.466-15.435-18.112-23.839-25.957-.038.475-.132.949-.285 1.411-19.618 56.661-87.754 123.248-181.676 123.397-29.984 0-49.858-9.188-69.172-18.115-25.135-12.487-49.586-19.179-74.779-19.712-3.645-.197-7.086-.385-10.288-.755-.161 5.525 1.119 11.608 4.653 18.297 5.875 11.121 16.802 11.711 30.635 12.458 25.193.532 49.643 7.225 74.779 19.712 19.314 8.927 39.187 18.115 69.172 18.115 93.922-.149 162.058-66.736 181.676-123.397.614-1.852.287-3.887-.876-5.455z" fill="#d4dbd9"/><path d="m287.305 177.112c-33.14-6.974-78.715-.756-108.666 13.011-62.261 57.206-21.327 162.36 63.338 162.306 96.291-1.001 129-127.859 45.328-175.316z" fill="#33a6fb"/><g fill="#b4d9fb"><path d="m241.861 306.984c-3.305-.032-6.007 2.67-6.016 5.984l-.017 6.475c.254 7.941 11.706 7.973 12 .031l.017-6.475c.008-3.313-2.671-6.007-5.984-6.016z"/><path d="m213.356 296.524c-2.533-2.136-6.318-1.814-8.455.719l-4.174 4.949c-4.922 6.211 3.864 13.644 9.174 7.736 0 0 4.174-4.949 4.174-4.949 2.136-2.533 1.814-6.318-.719-8.455z"/><path d="m191.304 265.307-6.378 1.108c-7.803 1.646-5.784 12.924 2.055 11.822 0 0 6.378-1.108 6.378-1.108 7.779-1.629 5.814-12.917-2.055-11.822z"/><path d="m189.792 239.227s5.598 3.251 5.598 3.251c2.816 1.649 6.528.717 8.202-2.175 1.664-2.866.69-6.538-2.175-8.202l-5.598-3.251c-7.005-3.75-12.757 6.15-6.027 10.377z"/><path d="m228.31 207.077c-2.955-7.376-13.726-3.489-11.287 4.074l2.198 6.089c1.121 3.147 4.646 4.726 7.681 3.606 3.117-1.125 4.731-4.564 3.606-7.681l-2.198-6.089z"/><path d="m299.005 266.709-6.373-1.141c-7.87-1.124-9.881 10.143-2.114 11.812 0 0 6.372 1.141 6.372 1.141 7.833 1.14 9.909-10.126 2.114-11.812z"/><path d="m278.871 297.435c-5.298-5.92-14.092 1.417-9.212 7.689 0 0 4.149 4.97 4.149 4.97 2.132 2.554 5.921 2.877 8.451.761 2.544-2.123 2.884-5.907.761-8.45z"/></g><path d="m241.976 227.865c-19.151 0-34.732 15.581-34.732 34.732 1.908 46.077 67.563 46.064 69.464 0 0-19.151-15.581-34.732-34.732-34.732z" fill="#2a4d74"/><path d="m266.88 202.073c-17.041 0-30.904 13.863-30.904 30.903 1.697 40.998 60.116 40.986 61.808 0 0-17.04-13.863-30.903-30.904-30.903z" fill="#e3eae8"/><path d="m130.422 342.232c-18.796-17.388-30.606-40.92-33.256-66.263l-2.02-19.322c-2.535 4.702-10.415 19.212-12.633 23.584-10.385 15.711-30.32 28.801-16.49 56.631 5.876 11.122 16.807 11.714 30.647 12.464 7.66.415 17.193.932 28.501 3.193l20.888 4.177-15.637-14.465z" fill="#ff86ae"/><path d="m130.422 342.232c-5.444-5.036-10.281-10.601-14.5-16.562l-15.751-3.149c-11.308-2.262-20.841-2.778-28.501-3.193-3.674-.199-7.14-.389-10.364-.766-.072 5.367 1.276 11.377 4.717 18.302 5.876 11.122 16.807 11.714 30.647 12.464 7.66.415 17.193.932 28.501 3.193l20.888 4.177-15.637-14.465z" fill="#e26187"/><path d="m469.397 102.461c-62.644-47.338-143.608-94.265-213.395-97.866-81.861-2.783-134.116 10.217-186.148 33.308-6.108-7.284-18.562-6.342-23.169 2.248-14.663 25.804-11.492 60.543-6.25 85.141 1.8 8.447 7.133 15.756 14.63 20.052 4.654 2.666 9.888 4.027 15.15 4.027 3.227 0 6.465-.512 9.587-1.547 121.064-40.169 208.544-61.483 234.018-57.017 28.624 5.021 92.345 24.638 140.76 40.21 17.32 5.539 29.478-17.369 14.816-28.555z" fill="#2a4d74"/><path d="m469.397 102.461c-6.115-4.621-12.406-9.237-18.842-13.809-1.871 8.612-10.466 15.725-20.975 12.365-48.415-15.573-112.136-35.189-140.76-40.21-25.474-4.466-112.954 16.847-234.018 57.017-3.122 1.036-6.36 1.547-9.587 1.547-2.039 0-4.072-.21-6.07-.615.409 2.244.841 4.429 1.29 6.536 1.8 8.447 7.133 15.756 14.63 20.052 4.654 2.666 9.888 4.027 15.15 4.027 3.227 0 6.465-.512 9.587-1.547 121.064-40.169 208.544-61.483 234.018-57.017 28.624 5.021 92.345 24.638 140.76 40.21 17.32 5.539 29.478-17.369 14.816-28.555z" fill="#1b3c59"/><g fill="#ffee93"><path d="m502 37.86c-16.924 0-27.86-10.936-27.86-27.86-.265-7.929-11.725-7.951-12 0 0 23.841 16.019 39.86 39.86 39.86 7.937-.275 7.947-11.722 0-12z"/><path d="m77.72 189.023c-16.924 0-27.86-10.936-27.86-27.86-.265-7.929-11.725-7.951-12 0 0 23.841 16.019 39.86 39.86 39.86 7.937-.275 7.947-11.722 0-12z"/></g><g fill="#f9bd46"><path d="m434.28 37.86c-7.937.275-7.947 11.722 0 12 16.924 0 27.86 10.936 27.86 27.86 0 3.313 2.687 6 6 6s6-2.687 6-6c0-23.841-16.019-39.86-39.86-39.86z"/><path d="m10 189.023c-7.937.275-7.947 11.722 0 12 16.924 0 27.86 10.936 27.86 27.86 0 3.313 2.687 6 6 6s6-2.687 6-6c0-23.841-16.019-39.86-39.86-39.86z"/></g><path d="m507.084 329.547-33.333-57.735c-3.282-5.685-9.16-9.078-15.723-9.078s-12.441 3.394-15.723 9.078l-33.333 57.735c-.526.912-.804 1.946-.804 3v169.453c0 3.313 2.687 6 6 6h87.72c3.314 0 6-2.687 6-6v-169.453c0-1.054-.277-2.088-.804-3z" fill="#ff86ae"/><path d="m464.028 508v-152.931c0-3.313-2.687-6-6-6s-6 2.687-6 6v152.931z" fill="#e26187"/><path d="m473.751 271.812c-6.692-12.038-24.755-12.041-31.446 0 0 0-34.137 59.128-34.137 59.128v5.845c24.846 32.222 74.88 32.216 99.72 0v-5.845z" fill="#f3e1c1"/><path d="m473.751 271.812c-6.689-12.039-24.759-12.037-31.446 0 0 0-13.358 23.136-13.358 23.136 7.942 8.472 17.264 13.664 29.081 13.654 9.64 0 18.77-3.692 25.71-10.397l3.371-3.257-13.358-23.137z" fill="#417195"/></svg>