<svg id="Layer_5" height="512" viewBox="0 0 512 512" width="512" xmlns="http://www.w3.org/2000/svg" data-name="Layer 5"><g><path d="m118.91 293.473h-96.327c-10.452 0-18.956 8.504-18.956 18.956v36.778c0 10.452 8.503 18.955 18.956 18.955h96.327c3.313 0 6-2.687 6-6v-62.689c0-3.313-2.687-6-6-6z" fill="#ff86ae"/><path d="m488.672 299.476h-341.806c-3.313 0-6 2.687-6 6v50.684c0 3.313 2.687 6 6 6h341.806c10.452 0 18.955-8.503 18.955-18.955v-24.773c0-10.452-8.503-18.955-18.955-18.955z" fill="#b4d9fb"/><path d="m488.672 299.476h-6.045v13.729c0 10.452-8.503 18.955-18.955 18.955h-322.806v24c0 3.313 2.687 6 6 6h341.806c10.452 0 18.955-8.503 18.955-18.955v-24.773c0-10.452-8.503-18.955-18.955-18.955z" fill="#91caed"/><path d="m140.866 305.476v50.684c0 3.313 2.687 6 6 6h29.985c.003-.195.015-.387.015-.583v-61.518c0-.196-.012-.388-.015-.583h-29.985c-3.313 0-6 2.687-6 6z" fill="#91caed"/><g fill="#6cacdd"><path d="m202.764 299.476-59.921 61.126c1.065.964 2.473 1.557 4.022 1.557h11.255c18.693-19.069 48.606-49.583 61.447-62.684h-16.804z"/><path d="m244.039 299.476-61.604 62.684h16.826c18.85-19.18 50.075-50.952 61.604-62.684z"/><path d="m285.32 299.476-61.768 62.684h16.847c19.011-19.293 51.656-52.421 61.768-62.684z"/><path d="m326.606 299.476-61.937 62.684h16.869c19.18-19.412 53.36-54.003 61.937-62.684z"/><path d="m367.898 299.476-62.113 62.684h16.895c19.357-19.535 55.201-55.709 62.113-62.684z"/><path d="m409.199 299.476-62.296 62.684h16.918c19.539-19.661 57.19-57.545 62.296-62.684z"/><path d="m450.505 299.476-62.485 62.684h16.945c19.73-19.792 59.338-59.526 62.485-62.684z"/><path d="m491.574 299.722-62.438 62.438h16.97l56.517-56.517c-2.846-3.103-6.702-5.249-11.049-5.921z"/></g><path d="m118.91 293.473h-29.505c-.324 2.149-.495 4.348-.495 6.586v61.518c0 2.238.17 4.437.495 6.586h29.505c3.313 0 6-2.687 6-6v-62.689c0-3.313-2.687-6-6-6z" fill="#e26187"/><path d="m132.888 280.081c-11.016 0-19.978 8.962-19.978 19.978v61.518c0 11.017 8.962 19.979 19.978 19.979s19.978-8.962 19.978-19.979v-61.518c0-11.016-8.962-19.978-19.978-19.978z" fill="#8896db"/></g><path d="m489.505 72.575c-.958-1.306-2.403-2.169-4.007-2.394l-186.063-26.04c-3.089-.43-5.997 1.576-6.684 4.62s1.073 6.107 4.049 7.045l172.346 54.313c2.205.7 4.67.053 6.246-1.69 7.975-8.786 13.228-19.613 15.191-31.312.269-1.597-.121-3.235-1.079-4.542z" fill="#f7bfa9"/><path d="m424.913 195.77c-.106-1.616-.861-3.121-2.093-4.172l-33.684-28.733c-.675-.576-1.47-.995-2.327-1.227l-88.731-24.009c-1.348-.464-10.627-.096-12.111-.209-5.75-.023-8.223 7.527-3.489 10.882 0 0 81.602 58.329 81.602 58.329 18.426 13.197 43.976 10.556 59.303-6.452 1.084-1.203 1.636-2.793 1.53-4.41z" fill="#f7bfa9"/><path d="m389.136 162.865c-.675-.576-1.47-.995-2.327-1.227l-88.731-24.009c-1.348-.464-10.627-.096-12.111-.209-5.75-.023-8.223 7.527-3.489 10.882 0 0 9.716 6.945 22.442 16.041l84.536 22.874c6.262 1.694 12.724 2.554 19.206 2.554 3.74 0 7.434-.277 11.058-.817z" fill="#dd9b90"/><path d="m371.751 54.262-72.316-10.121c-3.089-.43-5.997 1.576-6.684 4.62s1.073 6.107 4.049 7.045l172.346 54.313c2.205.7 4.67.053 6.246-1.69 4.824-5.315 8.644-11.38 11.351-17.93-15.259-4.808-62.966-19.842-114.992-36.237z" fill="#dd9b90"/><path d="m495.854 107.879c-.726-1.459-2.014-2.561-3.569-3.05-.017-.015-293.613-92.522-293.633-92.535-56.517-17.358-118.735-6.863-166.431 28.075l-26.139 19.148c-1.543 1.13-2.455 2.928-2.455 4.84v206.816c0 2.442 1.48 4.642 3.744 5.56 2.239.914 4.853.382 6.56-1.379l122.455-126.043 125.937 120.427c1.171 1.119 2.751 1.72 4.363 1.659 1.619-.059 3.145-.769 4.232-1.969 21.143-23.352 21.385-58.788.564-82.427l-33.1-37.58h57.333l96.876 26.212c26.089 7.059 53.854-3.782 68.299-26.419 16.487-6.617 29.267-19.87 35.245-36.65.547-1.535.446-3.227-.28-4.686z" fill="#ffd5ae"/><path d="m218.349 77.072c-4.126-6.744-14.069-1.166-10.456 5.889.112.202 11.207 20.627 11.207 60.459 0 3.313 2.687 6 6 6s6-2.687 6-6c0-43.312-12.231-65.428-12.751-66.349z" fill="#dd9b90"/><path d="m470.849 144.114c-21.425-9.549-51.273-22.263-65.482-28.26-3.254-1.479-7.383.559-8.172 4.052-4.052 16.077 3.884 32.894 18.871 39.985l19.249 9.109c.056.026.112.052.168.077l2.73 1.19c9.04-4.888 16.918-12.029 22.676-21.052 3.501-1.405 6.823-3.126 9.961-5.101z" fill="#ff86ae"/><path d="m249.856 49.508c-3.048-1.301-6.573.117-7.873 3.164-1.3 3.048.116 6.573 3.164 7.873 0 0 192.627 82.179 213.965 91.283.61-.855 1.207-1.722 1.776-2.614 3.615-1.451 7.04-3.239 10.266-5.295-8.746-3.731-221.298-94.411-221.298-94.411z" fill="#dd9b90"/><path d="m495.854 107.879c-.495-.995-1.255-1.817-2.179-2.399l-49.022-15.662c-3.597-1.25-7.708 1.576-7.817 5.387-.822 14.978 8.029 28.668 22.025 34.066l17.287 6.667c1.244.534 2.559.906 3.891 1.132 7.164-6.669 12.717-15.023 16.095-24.506.547-1.535.446-3.227-.28-4.686z" fill="#ff86ae"/><g><path d="m372.655 465.208c-.174-.625-.263-1.254-.263-1.871v-18.026c0-.617.088-1.246.263-1.871.503-1.807.133-3.746-1.001-5.24s-2.902-2.371-4.778-2.371h-205.745c-3.419-.075-6.368 3.137-5.975 6.545.363 3.978.547 7.998.547 11.951s-.184 7.974-.547 11.95c-.378 3.406 2.541 6.621 5.975 6.545h205.745c3.84.099 6.919-3.929 5.78-7.611z" fill="#417195"/><path d="m456.562 425.438c-2.5-2.348-5.891-3.579-9.321-3.358l-69.074 4.312c-9.967.621-17.774 8.932-17.774 18.918v18.026c0 9.986 7.808 18.297 17.774 18.918l69.074 4.312c.257.016.514.024.771.024 6.693.134 12.619-5.772 12.486-12.478v-39.581c0-3.431-1.434-6.746-3.935-9.095z" fill="#f3e1c1"/><path d="m460.497 441.01-57.179 3.335c-3.308.193-5.833 3.031-5.641 6.34.186 3.188 2.831 5.65 5.984 5.65.143.024 36.534-2.118 56.835-3.307v-12.018z" fill="#dd9b90"/><path d="m155.155 442.373c.363 3.978.547 7.998.547 11.951s-.184 7.974-.547 11.95c-.378 3.406 2.541 6.621 5.975 6.545h29.528c1.326-12.283 1.326-24.708 0-36.991h-29.528c-3.419-.075-6.368 3.137-5.975 6.545z" fill="#2a4d74"/><path d="m160.613 409.305c-1.999-6.654-9.876-10.445-16.321-7.837 0 0-22.088 8.413-22.088 8.413l-53.1 1.708c-10.288.331-18.346 8.652-18.346 18.945v47.579c0 10.292 8.058 18.614 18.346 18.946l53.1 1.708 22.088 8.413c3.181 1.211 6.771 1.063 9.843-.411 3.071-1.475 5.433-4.182 6.478-7.427 9.425-29.082 9.425-60.956 0-90.038z" fill="#ff86ae"/></g><g><g fill="#fcdc45"><path d="m237.868 191.456c-23.996 0-39.501-15.505-39.501-39.501 0-3.313-2.687-6-6-6s-6 2.687-6 6c0 23.996-15.505 39.501-39.501 39.501-3.313 0-6 2.687-6 6s2.687 6 6 6c23.996 0 39.501 15.505 39.501 39.5 0 3.313 2.687 6 6 6s6-2.687 6-6c0-23.996 15.505-39.5 39.501-39.5 7.916-.263 7.964-11.719 0-12z"/><path d="m436.783 77.72c.266 7.923 11.721 7.958 12 0 0-16.924 10.936-27.86 27.86-27.86 3.313 0 6-2.687 6-6s-2.687-6-6-6c-16.924 0-27.86-10.936-27.86-27.86 0-3.313-2.687-6-6-6s-6 2.687-6 6c0 16.924-10.936 27.86-27.86 27.86-7.923.266-7.958 11.721 0 12 16.924 0 27.86 10.936 27.86 27.86z"/><path d="m502.373 228.874c-16.924 0-27.86-10.936-27.86-27.86-.266-7.923-11.721-7.958-12 0 0 16.924-10.936 27.86-27.86 27.86-3.313 0-6 2.687-6 6s2.687 6 6 6c16.924 0 27.86 10.936 27.86 27.86 0 3.313 2.687 6 6 6s6-2.687 6-6c0-16.924 10.936-27.86 27.86-27.86 7.923-.266 7.958-11.721 0-12z"/></g><g fill="#ffee93"><path d="m237.868 191.456c-23.996 0-39.501-15.505-39.501-39.501-.262-7.924-11.725-7.955-12 0 0 30.804 20.697 51.501 51.501 51.501 3.313 0 6-2.687 6-6s-2.687-6-6-6z"/><path d="m482.643 43.86c0-3.313-2.687-6-6-6-16.924 0-27.86-10.936-27.86-27.86 0-3.313-2.687-6-6-6s-6 2.687-6 6c0 23.841 16.019 39.86 39.86 39.86 3.313 0 6-2.687 6-6z"/><path d="m502.373 228.874c-16.924 0-27.86-10.936-27.86-27.86-.265-7.929-11.725-7.951-12 0 0 23.841 16.019 39.86 39.86 39.86 7.937-.275 7.947-11.722 0-12z"/></g><g fill="#f9bd46"><path d="m146.866 191.456c-7.934.275-7.95 11.721 0 12 23.996 0 39.501 15.505 39.501 39.5 0 3.313 2.687 6 6 6s6-2.687 6-6c0-30.804-20.697-51.5-51.501-51.5z"/><path d="m436.783 77.72c.265 7.929 11.725 7.951 12 0 0-23.841-16.019-39.86-39.86-39.86-3.313 0-6 2.687-6 6s2.687 6 6 6c16.924 0 27.86 10.936 27.86 27.86z"/><path d="m434.653 228.874c-7.937.275-7.947 11.722 0 12 16.924 0 27.86 10.936 27.86 27.86 0 3.313 2.687 6 6 6s6-2.687 6-6c0-23.842-16.019-39.86-39.86-39.86z"/></g></g><path d="m278.075 229.34-9.684-9.26c-4.966-4.748-11.493-7.289-18.353-7.125-10.008.213-22.138 7.059-21.994 18.185.086 3.834 1.66 7.406 4.432 10.057l38.194 36.523c2.287 2.271 6.302 2.184 8.483-.19 12.988-13.583 12.504-35.201-1.078-48.189z" fill="#ff86ae"/></svg>