<svg id="Layer_5" height="512" viewBox="0 0 512 512" width="512" xmlns="http://www.w3.org/2000/svg" data-name="Layer 5"><path d="m278.03 61.07h121.461c39.733 0 71.991 32.258 71.991 71.991 0 149.524-121.395 270.919-270.919 270.919h-73.528c-52.96 0-95.957-42.997-95.957-95.957 0-136.297 110.655-246.952 246.952-246.952z" fill="#ffd6b2"/><g><path d="m116.105 101.002c0-27.364-18.137-45.501-45.501-45.501 27.364 0 45.501-18.137 45.501-45.501 0 27.364 18.137 45.501 45.501 45.501-27.364 0-45.501 18.137-45.501 45.501z" fill="#fcdc45"/><path d="m211.915 152.324c0-20.363-13.497-33.86-33.86-33.86 20.363 0 33.86-13.497 33.86-33.86 0 20.363 13.497 33.86 33.86 33.86-20.363 0-33.86 13.497-33.86 33.86z" fill="#fcdc45"/><g><path d="m54.191 128.619 17.255 64.396 211.037 211.037 62.028-62.028-211.037-211.037-64.396-17.255c-9.038-2.422-17.308 5.849-14.887 14.887z" fill="#ff86ae"/><path d="m133.474 130.988-64.396-17.255c-9.038-2.422-17.308 5.849-14.887 14.887l17.255 64.396 1.451 1.451c16.272 1.421 33.035-4.086 45.488-16.54s17.96-29.216 16.54-45.488z" fill="#ffd5ae"/><path d="m81.286 140.827c5.919-5.919 8.937-13.636 9.071-21.393l-21.279-5.702c-9.038-2.422-17.308 5.849-14.887 14.887l5.702 21.279c7.757-.134 15.474-3.152 21.393-9.071z" fill="#2a4d74"/><path d="m439.266 459.759-4.891-10.891c-12.127-27.004-29.071-51.574-50.003-72.506l-37.099-37.099-68.114 68.114 37.099 37.099c20.932 20.932 45.501 37.876 72.506 50.003l10.891 4.891c11.349 5.097 24.667 2.65 33.464-6.147 8.797-8.797 11.243-22.115 6.147-33.464z" fill="#417195"/><path d="m360.577 352.567 23.795 23.795c20.932 20.932 37.876 45.501 50.003 72.505l4.891 10.891c.075.167.132.338.204.505l26.883-26.883c4.747-4.747 4.747-12.443 0-17.19l-76.105-76.105c-4.747-4.747-12.443-4.747-17.19 0l-12.481 12.481z" fill="#6b6bbf"/></g><path d="m439.266 459.759-4.891-10.891c-12.127-27.004-29.071-51.574-50.003-72.506l-37.099-37.099-68.114 68.114 37.099 37.099c20.932 20.932 45.501 37.876 72.506 50.003l10.891 4.891c11.349 5.097 24.667 2.65 33.464-6.147 8.797-8.797 11.243-22.115 6.147-33.464z" fill="#8896db"/></g><g><path d="m374.468 340.783c-.298-7.263-3.21-14.438-8.743-19.971l-211.037-211.038c-3.619-3.619-8.124-6.249-13.042-7.641-40.74 27.042-72.987 65.846-91.901 111.574.164.172.319.353.488.521l187.238 187.238c51.746-7.05 98.839-28.705 136.997-60.684z" fill="#f7bfa9"/><g fill="#2a4d74"><path d="m484.591 397.953c-2.343-2.343-6.143-2.343-8.485 0l-13.996 13.996c-2.343 2.343-2.343 6.142 0 8.485s6.143 2.343 8.485 0l13.996-13.996c2.343-2.343 2.343-6.142 0-8.485z"/><path d="m465.565 378.927c-2.343-2.343-6.143-2.343-8.485 0l-13.996 13.996c-2.343 2.343-2.343 6.142 0 8.485s6.143 2.343 8.485 0l13.996-13.996c2.343-2.343 2.343-6.142 0-8.485z"/><path d="m446.539 359.9c-2.343-2.343-6.143-2.343-8.485 0l-13.996 13.996c-2.343 2.343-2.343 6.142 0 8.485s6.143 2.343 8.485 0l13.996-13.996c2.343-2.343 2.343-6.142 0-8.485z"/><path d="m427.512 340.874c-2.343-2.343-6.143-2.343-8.485 0l-13.996 13.996c-2.343 2.343-2.343 6.142 0 8.485s6.143 2.343 8.485 0l13.996-13.996c2.343-2.343 2.343-6.142 0-8.485z"/><path d="m408.486 321.848c-2.344-2.343-6.143-2.343-8.485 0l-13.995 13.996c-2.343 2.343-2.343 6.142 0 8.485s6.142 2.343 8.485 0l13.995-13.996c2.343-2.343 2.343-6.142 0-8.485z"/></g><path d="m470.596 411.949-76.105-76.105c-7.078-7.078-18.596-7.077-25.675 0l-12.48 12.481c-2.343 2.343-2.343 6.142 0 8.485l23.795 23.795c23.466 23.154 41.015 51.24 53.652 81.595 1.288 4.098 6.958 5.458 9.931 2.307 0 0 26.883-26.883 26.883-26.883 7.041-6.758 7.045-18.917 0-25.675z" fill="#6b6bbf"/><path d="m177.522 331.186c-33.511 0-66.466-5.222-98.01-15.525l-10.605 10.605c-2.343 2.343-6.143 2.343-8.485 0s-2.343-6.142 0-8.485l13.227-13.227c1.616-1.616 4.01-2.174 6.173-1.438 31.374 10.663 64.245 16.07 97.7 16.07 92.025 0 178.045-41.075 236.003-112.692 1.139-1.408 2.853-2.226 4.664-2.226h18.706c3.313 0 6 2.687 6 6s-2.687 6-6 6h-15.859c-60.22 73.07-148.807 114.917-243.514 114.917z" fill="#dd9b90"/><g><path d="m320.34 113.859c23.646 0 77.018 5.506 151.049 15.558-1.897-38.067-33.361-68.348-71.899-68.348h-121.461c-108.614 0-200.849 70.12-233.911 167.56 2.055.22 4.123.344 6.205.344 9.593 0 19.122-2.401 27.557-6.943 158.555-85.389 227.009-108.171 242.46-108.171z" fill="#f7bfa9"/><path d="m498.24 73.858c-80.099-41.036-180.824-78.02-260.305-68.276-92.918 13-150.301 38.45-204.125 74.866-7.787-7.182-21.468-4.02-24.877 6.305-11.372 31.836-.941 70.278 9.811 96.921 3.618 8.964 10.91 15.99 20.005 19.275 3.748 1.354 7.666 2.024 11.574 2.024 5.589 0 11.158-1.371 16.177-4.074 129.108-69.53 224.001-111.041 253.84-111.041 33.425 0 109.446 9.552 167.333 17.565 19.689 2.699 28.491-24.278 10.566-33.566z" fill="#2a4d74"/><path d="m498.24 73.858c-5.369-2.75-10.833-5.482-16.374-8.183-2.582 7.312-9.585 13.066-19.193 11.749-57.888-8.013-133.909-17.565-167.333-17.565-29.838 0-124.731 41.51-253.84 111.041-5.019 2.703-10.587 4.074-16.177 4.074-3.538 0-7.082-.555-10.502-1.663 1.276 3.611 2.597 7.078 3.923 10.364 3.618 8.964 10.91 15.99 20.005 19.275 3.748 1.354 7.666 2.024 11.574 2.024 5.589 0 11.158-1.371 16.177-4.074 129.108-69.53 224.001-111.041 253.84-111.041 33.425 0 109.446 9.552 167.333 17.565 19.689 2.699 28.491-24.278 10.566-33.566z" fill="#1b3c59"/></g><path d="m80.877 285.334c-.611 0-1.233-.094-1.846-.292-3.153-1.019-4.883-4.401-3.865-7.554l6.956-21.529c1.25-3.867 3.802-7.231 7.189-9.474 15.071-9.977 94.537-60.176 179.146-68.684 3.293-.333 6.238 2.073 6.57 5.37s-2.072 6.238-5.37 6.57c-81.799 8.226-159.063 57.048-173.722 66.751-1.127.747-1.978 1.867-2.394 3.156l-6.956 21.53c-.821 2.54-3.175 4.157-5.708 4.157z" fill="#dd9b90"/><g fill="#dd9b90"><path d="m108.33 313.016c-2.822-1.736-6.518-.857-8.255 1.965l-9.805 15.93c-3.925 6.882 5.799 12.924 10.22 6.29 0 0 9.805-15.93 9.805-15.93 1.737-2.822.857-6.518-1.965-8.255z"/><path d="m136.138 318.485c-3.051-1.289-6.572.141-7.861 3.194l-7.167 16.976c-2.837 7.388 7.686 11.9 11.055 4.667 0 0 7.167-16.976 7.167-16.976 1.289-3.053-.141-6.572-3.194-7.861z"/><path d="m164.816 321.296c-3.215-.802-6.472 1.151-7.276 4.366l-4.415 17.658c-1.666 7.737 9.426 10.576 11.642 2.91 0 0 4.415-17.658 4.415-17.658.804-3.214-1.151-6.472-4.366-7.276z"/><path d="m194.499 321.304c-3.31-.287-6.212 2.15-6.503 5.451l-1.58 17.96c-.428 7.917 10.974 8.956 11.954 1.052 0 0 1.58-17.96 1.58-17.96.29-3.301-2.15-6.212-5.451-6.503z"/><path d="m230.545 323.921c-.848-7.898-12.266-7.08-11.969.862 0 0 1.288 17.868 1.288 17.868.227 3.312 3.153 5.804 6.416 5.553 3.305-.238 5.791-3.11 5.553-6.416l-1.288-17.868z"/><path d="m259.991 317.074c-2.083-7.665-13.235-5.044-11.68 2.752 0 0 4.095 17.38 4.095 17.38.747 3.249 4.076 5.231 7.216 4.464 3.226-.76 5.224-3.991 4.464-7.216z"/><path d="m288.153 307.451c-3.267-7.24-13.865-2.892-11.099 4.562 0 0 6.789 16.516 6.789 16.516 3.297 7.261 13.865 2.859 11.099-4.562 0 0-6.789-16.516-6.789-16.516z"/><path d="m314.899 295.232c-4.36-6.638-14.147-.686-10.248 6.242 0 0 9.319 15.299 9.319 15.299 1.734 2.855 5.461 3.712 8.245 2.003 2.83-1.724 3.727-5.416 2.003-8.245z"/><path d="m340.096 280.589c-5.335-5.881-14.083 1.513-9.157 7.755 0 0 11.651 13.759 11.651 13.759 5.317 5.895 14.095-1.551 9.157-7.755 0 0-11.651-13.759-11.651-13.759z"/><path d="m377.362 275.616-13.75-11.924c-6.174-4.995-13.685 3.652-7.862 9.065 0 0 13.75 11.924 13.75 11.924 1.136.985 2.535 1.467 3.929 1.467 5.423.091 8.14-6.979 3.934-10.533z"/><path d="m400.898 254.528-15.589-9.826c-6.859-4.003-12.973 5.683-6.398 10.151 0 0 15.589 9.826 15.589 9.826.994.626 2.1.925 3.193.925 5.908.038 8.292-7.88 3.205-11.077z"/><path d="m422.198 231.273-17.14-7.491c-3.036-1.327-6.573.058-7.901 3.095-1.327 3.036.059 6.574 3.095 7.901l17.14 7.491c.782.342 1.597.503 2.4.503 6.412-.035 8.349-8.827 2.406-11.5z"/></g><path d="m154.688 109.774c-3.72-3.719-8.372-6.405-13.449-7.764l-64.396-17.255c-3.597-.964-7.295-1.453-10.992-1.453-11.196 0-21.752 4.39-29.727 12.364-10.775 10.776-14.854 25.998-10.909 40.718l17.253 64.391c.323 1.205.726 2.384 1.193 3.534 2.202.438 4.434.664 6.663.664 5.589 0 11.158-1.371 16.177-4.074 43.907-23.646 83.852-44.047 118.632-60.681l-30.445-30.445z" fill="#1b3c59"/><path d="m348.754 337.782-209.586-209.586s0 0 0 0c.998.998 1.611 2.314 1.734 3.72 3.777 36.17-26.706 69.367-62.967 68.77-3.104-.193-6.875.454-9.28-1.977l209.586 209.586c1.125 1.125 2.651 1.757 4.243 1.757s3.117-.632 4.243-1.757l62.028-62.028c2.343-2.343 2.343-6.142 0-8.485z" fill="#ff86ae"/><path d="m317.74 368.796-195.112-195.112c-5.692-5.376-13.958 2.581-8.485 8.485 0 0 195.112 195.112 195.112 195.112 5.729 5.391 13.942-2.611 8.485-8.485z" fill="#e26187"/><path d="m70.631 107.937c-13.234-3.78-26.022 8.99-22.235 22.235 0 0 2.334 8.713 5.285 19.726h6.211c7.757-.134 15.474-3.152 21.393-9.071s8.937-13.636 9.071-21.393v-6.212l-19.726-5.286z" fill="#417195"/><path d="m455.734 452.485c-21.95-53.147-47.998-78.836-84.031-114.373-.847-.835-1.721-1.699-2.58-2.547-.1.096-.208.179-.307.277l-12.48 12.481c-2.343 2.343-2.343 6.142 0 8.485l23.795 23.795c23.466 23.154 41.015 51.24 53.652 81.595 1.288 4.098 6.958 5.458 9.931 2.307 0 0 5.806-5.806 12.021-12.021z" fill="#4f4f9e"/><path d="m140.902 131.917c-.123-1.405-.736-2.722-1.734-3.72-1.157-1.18-2.457-2.642-4.141-3.005l-44.67-11.969v6.212c-.133 7.757-3.152 15.474-9.071 21.393s-13.636 8.937-21.393 9.071h-6.211c5.073 18.933 11.969 44.67 11.969 44.67.333 1.685 1.853 2.987 3.004 4.141 2.405 2.431 6.175 1.784 9.28 1.977 36.262.597 66.744-32.599 62.967-68.77z" fill="#f3e1c1"/><path d="m104.574 194.806c-8.156 3.883-17.197 6.035-26.639 5.88-3.104-.193-6.875.454-9.28-1.977l209.586 209.586c1.125 1.125 2.651 1.757 4.243 1.757s3.117-.632 4.243-1.757l62.028-62.028c2.343-2.343 2.343-6.142 0-8.485l-15.668-15.668-46.359 46.359c-1.125 1.125-2.651 1.757-4.243 1.757s-3.117-.632-4.243-1.757z" fill="#e26187"/><g><path d="m245.774 112.464c-16.924 0-27.859-10.936-27.859-27.859-.266-7.923-11.721-7.958-12 0 0 16.924-10.936 27.859-27.86 27.859-3.313 0-6 2.687-6 6s2.687 6 6 6c16.924 0 27.86 10.936 27.86 27.86 0 3.313 2.687 6 6 6s6-2.687 6-6c0-16.924 10.936-27.86 27.859-27.86 7.923-.266 7.958-11.721 0-12z" fill="#fcdc45"/><g><path d="m178.055 112.464c-7.937.275-7.947 11.722 0 12 16.924 0 27.86 10.936 27.86 27.86 0 3.313 2.687 6 6 6s6-2.687 6-6c0-23.841-16.019-39.86-39.86-39.86z" fill="#f9bd46"/><path d="m245.774 112.464c-16.924 0-27.859-10.936-27.859-27.859-.265-7.929-11.725-7.951-12 0 0 23.841 16.018 39.859 39.859 39.859 7.937-.275 7.947-11.722 0-12z" fill="#ffee93"/></g><path d="m161.606 49.501c-23.996 0-39.5-15.505-39.5-39.501 0-3.313-2.687-6-6-6s-6 2.687-6 6c0 23.996-15.505 39.501-39.501 39.501-3.313 0-6 2.687-6 6s2.687 6 6 6c23.996 0 39.501 15.505 39.501 39.5 0 3.313 2.687 6 6 6s6-2.687 6-6c0-23.996 15.505-39.5 39.5-39.5 7.916-.263 7.964-11.719 0-12z" fill="#fcdc45"/><g><path d="m161.606 49.501c-23.996 0-39.5-15.505-39.5-39.501-.262-7.924-11.725-7.955-12 0 0 30.804 20.696 51.501 51.5 51.501 3.313 0 6-2.687 6-6s-2.687-6-6-6z" fill="#ffee93"/><path d="m70.604 49.501c-7.934.275-7.95 11.721 0 12 23.996 0 39.501 15.505 39.501 39.5 0 3.313 2.687 6 6 6s6-2.687 6-6c0-30.804-20.697-51.5-51.501-51.5z" fill="#f9bd46"/></g></g><path d="m444.74 457.301c-23.299-56.534-51.502-80.747-93.224-122.28-1.124-1.125-2.651-1.758-4.242-1.758s-3.117.632-4.243 1.757l-68.114 68.114c-2.343 2.343-2.343 6.142 0 8.485l37.099 37.099c21.526 21.526 46.521 38.763 74.291 51.234l10.891 4.891c4.685 2.104 9.68 3.124 14.647 3.124 25.734.337 43.652-27.14 32.896-50.666z" fill="#8896db"/><path d="m321.432 424.298-33.84-33.84-12.675 12.676c-2.343 2.343-2.343 6.142 0 8.485l37.099 37.099c21.526 21.526 46.521 38.763 74.291 51.234l10.891 4.891c4.685 2.104 9.68 3.124 14.647 3.124 20.565.27 36.121-17.226 36.058-36.27-6.502 7.261-15.883 11.991-26.642 11.85-4.967 0-9.962-1.02-14.647-3.124l-10.891-4.891z" fill="#6b6bbf"/></g></svg>